<svg xmlns="http://www.w3.org/2000/svg" viewBox="0 0 539.01 700"><path fill="#ed1d24" d="M232.92 63.58h-54.15L162 12.08l-16.7 51.5H91.49l-.24-.08.11.08h-.21L135 95.4l-16.73 51.5L162 115.08l43.81 31.82-16.7-51.5z"/><path fill="#fff" d="M185.72 96.51 202.45 148l5.49-4-43.81-31.83-2.13-1.5-2.1 1.52L116.13 144l5.48 4 16.73-51.5.81-2.47-2.1-1.52-43.81-31.82-2.09 6.46H102c.22 0-8.57-6.44-8.57-6.44l-3.31 6.18.23.08.53.18h57l.8-2.47 16.73-51.5h-6.78l16.73 51.5.81 2.47h56.74l-2.1-6.46L187 92.52 184.92 94zM232.92 60h-54.16l3.39 2.45L165.42 11 162 .54 158.64 11l-16.73 51.47L145.3 60H91.49l1.1.17-3.44 6.19L91.36 60H80.18l8.87 6.44 43.81 31.83-1.3-4-16.73 51.53-3.39 10.44 8.87-6.45L164.13 118h-4.19l43.81 31.83 8.87 6.45-3.39-10.44-16.73-51.53-1.3 4L235 66.46l8.89-6.46z"/><path fill="#ed1d24" d="M0 430.49C0 281.65 120.66 161 269.51 161S539 281.65 539 430.49 418.35 700 269.51 700 0 579.33 0 430.49"/><path fill="#fff" d="M10 430.45C10 287.17 126.16 171 269.43 171s259.43 116.17 259.43 259.45-116.14 259.42-259.43 259.42S10 573.73 10 430.45"/><path fill="#ed1d24" d="M20.12 430.47c0-137.7 111.62-249.32 249.32-249.32s249.32 111.62 249.32 249.32-111.62 249.32-249.32 249.32S20.12 568.16 20.12 430.47"/><path fill="#fff" d="M101.05 430.61A168.45 168.45 0 1 1 269.5 599.05a168.45 168.45 0 0 1-168.45-168.44"/><path fill="#ed1d24" d="M111.14 430.49a158.36 158.36 0 1 1 158.35 158.36 158.34 158.34 0 0 1-158.35-158.36"/><path fill="#fff" d="m129.35 478.6 124.83-176.39s6.72-11 19.62-11h46.66V478.6h89.28s-32.2 99.86-140.38 99.86c-107 0-140-99.86-140-99.86"/><path fill="#ed1d24" d="M146.45 478.6 267.1 309s2-3.47 7.36-3.47h32.59V478.6z"/><g fill="#fff"><path d="M222.15 396.34a39.59 39.59 0 1 1 39.58 39.58 39.59 39.59 0 0 1-39.58-39.58M98.22 493.18 90 462.53a37.4 37.4 0 0 1-13 5.84l-25 6.7a37.9 37.9 0 0 1-14.16 1.43L42 491.79a37.5 37.5 0 0 1 13-5.84l9.43-2.53a15 15 0 0 1 .57 1.84 18.4 18.4 0 0 1 .12 10.08L76 497.58l-4.31-16.11 14-3.75c1.32 5.18 1.75 9.57 1 13.3zM78.74 551.93a18.6 18.6 0 0 1-5.61-6.43 20.22 20.22 0 0 1-1.58-16.81c1.9-5.71 5-9.73 9.79-12.36a27.8 27.8 0 0 1 16.19-3.59 30.4 30.4 0 0 1 3.63 5.08A23.48 23.48 0 0 1 104 532.7c-1.2 6.95-4.92 11.85-11.46 15.48a27.33 27.33 0 0 1-13.82 3.75m-16-7.2c4.91 8.86 14.06 14.63 23.46 15.12a27.23 27.23 0 0 0 15-3.57 25.88 25.88 0 0 0 13.08-16.71 28.2 28.2 0 0 0-2.9-20.57 28.87 28.87 0 0 0-17.8-14.18 26.1 26.1 0 0 0-19.92 2.32 27.89 27.89 0 0 0-10.88 37.58M124.17 603.46a18.5 18.5 0 0 1-7.32-4.38 20.18 20.18 0 0 1-6.7-15.51c0-6 1.8-10.81 5.49-14.77a27.8 27.8 0 0 1 14.29-8.42 30.3 30.3 0 0 1 5 3.71 23.52 23.52 0 0 1 7.31 13.26c1 7-1 12.8-6.12 18.28a27.26 27.26 0 0 1-12 7.83m-17.42-1.91c7.4 6.9 17.89 9.56 27 7.13a27.1 27.1 0 0 0 13.14-8 25.83 25.83 0 0 0 7.28-19.93 28.17 28.17 0 0 0-9.12-18.68 28.86 28.86 0 0 0-21.31-8 26.17 26.17 0 0 0-18.23 8.36 27.89 27.89 0 0 0 1.27 39.11M151.08 634.46l14 7.43a37.6 37.6 0 0 1 4.58-13.48l15.24-28.71a23.5 23.5 0 0 1 8.85 8.42l8.8-7.43L167.42 582l-8.49 9.14a37.3 37.3 0 0 1 16 3.27l-15.27 28.71a37.6 37.6 0 0 1-8.61 11.33M214.82 631c6 3.78 8.56 8.67 7.3 13.72-1.36 5.47-5.7 8.14-11.51 6.69l-.83-.21zm.29-1.18 4.24-17c5.8 1.81 8.15 5.34 7 10s-5.21 7.31-11.24 7.05m1.89-25.15-9-2.25a37.6 37.6 0 0 1-1.18 14.19l-6.27 25.11a37.5 37.5 0 0 1-5.61 13.08l14.06 3.52c12.59 3.14 21.78-1.55 23.81-9.72 1.28-5.12-.73-10-5.82-15.56 5.66-2.33 9.06-5.68 10.11-9.9s-.65-9.2-4.83-12.74c-2.84-2.47-7-3.65-12-4.91l-3.33-.82M256.7 642.45c2.58-6.34 5-12.75 7.17-19.31 1.33 6.91 2.74 13.44 4.17 19.7zm-3.37 8.79 17 .6 2.21 8.07a14 14 0 0 1 .66 3.8 8.8 8.8 0 0 1-.52 2.55l16.31.57c-3.36-3.83-4.63-8.22-6-12.77L270 612.16l-9.83-.34-19.04 41.28a58.2 58.2 0 0 1-7.47 11.8l15.6.54a8.7 8.7 0 0 1-.39-3 12.4 12.4 0 0 1 1.3-4.53zM300.15 664.52l28.63-5.52 1.58-12.81a58.2 58.2 0 0 1-18.44 7.81l-6.08-31.29a37.5 37.5 0 0 1-.44-14.22l-15.55 3a37.5 37.5 0 0 1 4.93 13.35l4.93 25.4a37.5 37.5 0 0 1 .44 14.23M340.41 655.62l27.23-10.45-.64-12.88a58.5 58.5 0 0 1-16.8 11l-11.43-29.76a37.5 37.5 0 0 1-2.9-13.93l-14.78 5.67a37.4 37.4 0 0 1 7.16 12.3l9.28 24.16a37.5 37.5 0 0 1 2.9 13.93M408.19 571.27l-8.48-10.47a41.3 41.3 0 0 0-11 6.19 32 32 0 0 0-11.43 18.52 28.24 28.24 0 0 0 6.08 23.71c5.38 6.65 12.24 9.91 20.58 9.66a26.28 26.28 0 0 0 16.06-6.31 40 40 0 0 0 10.47-12.8l-6.57-10.57c0 6.39-2 10.95-6.57 14.67-8.19 6.64-18.4 5.27-25.75-3.82s-6.63-18.95.79-25c4.05-3.28 9.29-4.5 15.82-3.82M443 590.69 461.38 568l-7-10.82a58.3 58.3 0 0 1-9.07 17.89L420.52 555a37.4 37.4 0 0 1-9.52-10.58l-10 12.3a37.6 37.6 0 0 1 12.35 7.07l20.12 16.29a37.7 37.7 0 0 1 9.53 10.61M478.85 527.64l4.67 2.48 6.05-11.4a37.5 37.5 0 0 1-13.47-4.58L453.25 502a37.4 37.4 0 0 1-11.33-8.61l-7.44 14a37.5 37.5 0 0 1 13.52 4.55l24.18 12.85c.71 4.9.26 8.78-1.35 11.8-2.95 5.54-7.54 5.68-15 1.73l-17.06-9.07a37.6 37.6 0 0 1-11.3-8.67l-7.43 14a37.5 37.5 0 0 1 13.48 4.58l15.8 8.39c5.22 2.79 9.67 5.06 15.72 4.16a16.12 16.12 0 0 0 12.17-8.62 21.8 21.8 0 0 0 1.66-15.43M470.88 481.76c3.79-6 8.68-8.57 13.73-7.31 5.47 1.36 8.13 5.7 6.68 11.52l-.21.82zm-1.18-.3-17-4.24c1.82-5.79 5.34-8.15 10-7s7.3 5.19 7 11.23m-25.11-1.85-2.24 9a37.5 37.5 0 0 1 14.18 1.18l25.12 6.27a37.2 37.2 0 0 1 13.08 5.61l3.52-14.12c3.13-12.59-1.56-21.77-9.72-23.81-5.12-1.27-10 .74-15.56 5.82-2.35-5.65-5.68-9.05-9.9-10.11s-9.2.65-12.74 4.84c-2.48 2.84-3.64 6.95-4.91 12-.27 1.11-.55 2.21-.83 3.32M118.16 294.43c-2.88-5.69-5.91-11.33-9.2-16.87 5.67 3.29 11.14 6.31 16.42 9.14zm4.14 7.77 10.8-11.58 7 3.37a13 13 0 0 1 3.08 1.88 7.9 7.9 0 0 1 1.47 1.92l10.4-11.15c-4.75 0-8.63-1.77-12.69-3.56L105 266.5l-6.26 6.72 17.41 38.7a55 55 0 0 1 3.73 12.49l9.94-10.65a8.5 8.5 0 0 1-2.36-1.57 11.4 11.4 0 0 1-2.39-3.68zM156.44 256c6.46-1.6 11.38-.13 14 4 2.78 4.46 1.76 9.1-3 12.06l-.68.43zm-.6-1-8.67-13.88c5-2.71 8.86-2 11.23 1.77s1.53 8.23-2.56 12.11m-15.66-17.52-7.34 4.58a35.4 35.4 0 0 1 8.76 10l12.8 20.5a34.8 34.8 0 0 1 5.14 12.24l11.52-7.19c10.27-6.42 13.07-15.63 8.91-22.28-2.61-4.18-7.21-6-14.22-6.19 2.09-5.31 2.06-9.77-.09-13.2s-6.6-5.54-11.69-5c-3.5.3-7 2.3-11.08 4.88l-2.71 1.69M194.71 264.09l26.43-9.1.5-10.8c-3.36 3.13-7.82 5.51-13.48 7.46-1.26.44-2.6.82-3.94 1.22l-4.7-13.66.87-.31c3.15-1.07 5.94-1.34 8.39-.56l2.13-10.34-13.65 4.69-4.53-13.14A28.1 28.1 0 0 1 204 218l1.26-10.86-27 9.3a34.8 34.8 0 0 1 6.29 11.7l7.9 22.86a35 35 0 0 1 2.26 13.09M240.52 226.65l-2.44-19.88c6.06.19 9.55 3 10.14 7.81.69 5.54-2.07 9.9-7.7 12.07m.13 1.06c11.24 14 18.83 20.69 21.54 20.36l8.59-1.06a85.9 85.9 0 0 1-19.14-21c5.47-3.55 7.92-8.14 7.29-13.23-.51-4.16-3-7.81-7.35-10.23-4.7-2.7-9.53-2.78-15.81-2l-11 1.35a35 35 0 0 1 3.71 12.75l2.94 24a34.9 34.9 0 0 1-.51 13.27l14.67-1.8a34.7 34.7 0 0 1-3.72-12.75zM274.2 247.61l11 1.55c6.07.85 11.23.44 15.27-1.08 9.08-3.43 15.15-10.71 16.37-19.41a24.4 24.4 0 0 0-10.52-24.13c-4.28-3-9.37-4.61-15.82-5.52l-9.29-1.3a34.9 34.9 0 0 1 .29 13.28l-3.36 23.92a35 35 0 0 1-3.94 12.69m13.47-5 5-35.59c9.41 2.87 14.5 11.11 13.17 20.6-1.29 9.16-8 14.93-18.17 15M316.83 254.4l26.43 9.1 7.05-8.2c-4.57.4-9.56-.47-15.22-2.42-1.25-.44-2.56-1-3.86-1.47l4.71-13.66.88.31a13.33 13.33 0 0 1 7 4.71l8.06-6.86-13.65-4.7 4.53-13.15a28.3 28.3 0 0 1 9.83 5.77l7.68-7.77-27-9.3a35 35 0 0 1-2.27 13.09l-7.87 22.85a35 35 0 0 1-6.28 11.7M352.63 268.13 376.34 283l8.71-6.41c-4.54-.65-9.2-2.61-14.28-5.78a86 86 0 0 1-3.43-2.31l7.66-12.29.79.49c2.82 1.76 4.78 3.77 5.72 6.17l9.4-4.88-12.24-7.65 7.37-11.8a28.3 28.3 0 0 1 8.28 7.85l9.22-5.85-24.21-15.13a35 35 0 0 1-5.14 12.25l-12.8 20.48a35.1 35.1 0 0 1-8.76 10M416.58 275.77 410.11 306a31 31 0 0 1-2 6.67l7.95 8.51a41.3 41.3 0 0 1 7.23-8.74l19-17.75a34.8 34.8 0 0 1 11-7.38l-9.21-9.88a35.2 35.2 0 0 1-8.01 10.57l-16.31 15.2 7.15-33.41a18.3 18.3 0 0 1 3.23-7.38L419.6 251.1l-1.07 10.38L397 281.54a35.1 35.1 0 0 1-11.09 7.33l9.22 9.88a34.9 34.9 0 0 1 8.09-10.54z"/></g><path fill="#ed1d24" d="M447.94 63H393.8l-16.74-51.5L360.33 63h-53.81l-.24-.07.11.07h-.21L350 94.86l-16.74 51.5 43.81-31.83 43.81 31.83-16.74-51.5z"/><path fill="#fff" d="m400.75 96 16.73 51.5 5.48-4-43.8-31.82-2.09-1.53-2.07 1.5-43.81 31.82 5.49 4L353.38 96l.79-2.46-2.09-1.54-43.81-31.85-2.09 6.45h10.89c.2 0-8.58-6.44-8.58-6.44l-3.31 6.19.24.08.54.17h57l.8-2.46 16.74-51.5h-6.79l16.73 51.5.8 2.46H448l-2.11-6.45L402 92l-2.1 1.52zM448 59.47h-54.21l3.4 2.46-16.73-51.49L377.06 0l-3.39 10.44-16.73 51.49 3.39-2.46h-53.81l1.1.17-3.44 6.2 2.2-6.37H295.2l8.88 6.45 43.81 31.82-1.3-4-16.73 51.5-3.39 10.43 8.88-6.44 43.81-31.83H375l43.81 31.83 8.88 6.44-3.39-10.43-16.73-51.5-1.3 4L450 65.92l8.87-6.45z"/><path fill="#ed1d24" d="m273.45 405.63-16.2 5.75-11.56-14.79 10.5-15.54 18 5.17zM231.1 406l8.67-11.6-5.55-12.61-6.05 2.09a62 62 0 0 0-1.8 8.82 39 39 0 0 0 0 7.43zM241.23 370.19l3.82-5.56a41.3 41.3 0 0 1 6.77-2.76 46.7 46.7 0 0 1 7.84-1.33l5.45 4.53L255 375zM276.28 366.9l6.27.13a42.6 42.6 0 0 1 6.19 5.53 38.4 38.4 0 0 1 5.17 7.7l-2.91 5.18-13.89-5.31zM280.79 406.24l11.84-5.45 2.83 7.21a46 46 0 0 1-3.5 7.72 48 48 0 0 1-4.9 6h-6.85zM238.87 419.3l11.86-3.41 10.72 11.16-5.92 4.39a40.6 40.6 0 0 1-8.86-2.91 37.6 37.6 0 0 1-7.63-4.6zM219.25 514.54v17.12a26 26 0 0 1-1.62 9.75h10.27a26 26 0 0 1-1.6-9.75v-28l-12.91 10.85zM253 509.46a5.22 5.22 0 0 1 5.53 5.34 5.61 5.61 0 0 1-5.69 5.92c-3.17 0-5.27-2.23-5.27-5.6a5.3 5.3 0 0 1 5.43-5.66m-9.94 31.95h11a4.7 4.7 0 0 1-.13-1.15c0-2.46 1.83-4.89 4.11-8.64 3.76-6.22 7.35-11.17 7.35-16.86 0-6.57-4.68-11.07-12.23-11.07-7 0-12 4.89-12 11.75 0 6.23 4.16 10.4 10.17 10.4a8.4 8.4 0 0 0 2.35-.34l-4.75 8a57.6 57.6 0 0 1-5.82 7.88M284.74 535.28c-3.82 0-6.31-4.54-6.31-13 0-8 2.3-12.21 6.2-12.21s6.22 4 6.22 11.85c0 8.86-2.24 13.35-6.11 13.35m14.16-12.64c0-7.34-2.32-12.87-6.48-16.19a12.2 12.2 0 0 0-7.52-2.76 12.7 12.7 0 0 0-9.45 4.39c-3.27 3.66-5 8.68-5 14.77a22.38 22.38 0 0 0 4.33 14 12.13 12.13 0 0 0 9.74 4.92 12.53 12.53 0 0 0 9.68-4.72c3.16-3.8 4.69-8.54 4.69-14.37M320.23 519.35l7.44-15.35h-24.54v8.44c1.43-1.87 5.5-2.52 12.37-2.52h2.28l-6.21 12.82c5.58.61 8.55 3 8.55 6.82 0 4.25-2.48 6.92-6.32 6.92-3.64 0-6.19-2.06-7.35-6.13l-4 7.72a18.24 18.24 0 0 0 11.52 3.69c8.41 0 13.54-4.79 13.54-12 0-4.83-2.36-8.25-7.24-10.45"/><path fill="#fff" d="M359.47 370.26h-27a32 32 0 0 1 1.94 12v22a32.3 32.3 0 0 1-1.94 12h13.5a31.9 31.9 0 0 1-2-12V396a11 11 0 0 1 1.63-.08 15.65 15.65 0 0 1 8.31 2.13l4.27-8.51H344v-12.35c4.58 0 8.26.65 11.19 2.07zM399.6 383.13v-11.47a35.1 35.1 0 0 0-10.6-1.82 27.12 27.12 0 0 0-17.5 6.13 24 24 0 0 0-8.71 18.94 20.84 20.84 0 0 0 8.46 17.45 22.23 22.23 0 0 0 14 4.43 33.9 33.9 0 0 0 13.8-2.85l1.32-10.5c-3.38 4.25-7.16 6.18-12.2 6.18-9 0-15-6.37-15-16.35 0-9.83 5.77-16.08 13.9-16.08 4.42 0 8.55 2 12.53 5.94"/></svg>