<svg xmlns="http://www.w3.org/2000/svg" viewBox="0 0 702.63 700"><path fill="#018749" d="M679 224.48c-32.71-87.59-112.1-167-199.3-199.69C377.68-18.43 243-3.63 153.85 57.49 35.91 136.89-19.76 273.53 6.32 413.66c19.08 112.11 108.21 221.48 216.81 262 123.8 49 277.56 23.36 372.53-70.46C696.88 510.59 730 353.7 679 224.48"/><path fill="#fff" d="M248.46 661.22c-116.79-35-213.34-155.7-223.84-275.6C6.72 250.94 77.17 118.59 197.46 57.1 288.93 8 415.82 9.6 505.74 61c65 35 114.44 88.37 146 155.31 49.83 108.62 33.87 253-46.31 345.28-86 105.11-230.83 141.31-356.94 99.65"/><path fill="#018749" d="M642.38 218.25c-31.93-70.47-98.87-135.46-170.89-163.5-104.33-45.54-241.34-25.68-326.21 47.88-100 82.13-137 219.15-98.48 339.05 28.43 99.64 122.63 191.13 223.45 214.87 122.22 32.71 248.75-7 327.75-102.76 76.67-88 93.81-230.45 44.37-335.54"/><path fill="#fff" d="M281.92 655.39C172.14 634 68.62 531.6 45.25 421.83 14.51 296.09 59.65 167.25 166.7 91.34c86.81-65 223.43-75.5 320.74-25.29 60.35 29.58 114.06 79.79 144.42 140.12 52.95 97.33 45.16 235.91-21.41 325C535 637.1 408 683.79 281.92 655.39"/><path fill="#018749" d="M335.26 97.57c5.44 0 10.5-1.94 13.61-6.61 5.07-13.63 2-28.42-1.16-41.66-4.67-7.4-15.18-8.94-22.58-5.44-4.28 1.94-7.78 7-8.18 12.45 1.17 11.28-1.16 25.69 5.05 35.82 3.11 4.67 8.56 4.67 13.24 5.44"/><path fill="#fff" d="M325.9 51.64c3.91-4.67 11.69-3.9 15.18.79 3.91 9.34 2 19.85 3.14 30-.4 3.5-1.58 8.19-5.86 9s-10.11.38-11.29-4.29c-1.94-11.28-3.89-24.14-1.17-35.42"/><path fill="#018749" d="M386.63 98.36c4.67-1.17 7.78-5.07 9.36-9.75.77-12.83 8.16-28.8-1.17-40.09-4.69-4.28-12.47-5.06-19.09-3.49-3.9.77-7.39 5-8.56 8.55-.78 13.63-7.79 30 1.95 41.65 4.67 3.13 11.29 4.28 17.51 3.13"/><path fill="#fff" d="M374.56 55.54c.79-2.73 3.9-4.69 6.23-5.46 3.9-.77 6.61 1.17 9.34 2.73 4.69 10.9 0 24.14-1.56 35-1.17 2.35-3.11 4.68-5.44 5.06-5.07.79-10.13-.77-11.3-5.06-.77-11.29.79-22.19 2.73-32.3"/><path fill="#018749" d="M294.37 101.86c0-8.17-4.27-16-3.1-24.14L308 74.2a5.73 5.73 0 0 0-1.95-5.44l-16 3.12C287 68 287 62.15 285.43 57.08c4.27-4.27 12.45-2.73 18.28-4.67l.4-3.11-1.56-3.11c-7.39 1.55-15.17 3.11-23 4.28l-2 1.94 10.92 50.22a10.6 10.6 0 0 0 5.82-.77M422.45 59.81l-11.3 42c0 3.12 4.29 3.12 6.63 3.12l10.49-40.49c.79-7.78 9.75-1.56 14.4-1.17.79-1.94 2.34-3.5 1.17-5.44l-32.3-8.57-1.17.78c0 2-1.56 3.51 0 5.06 4.3 1.17 9 1.56 12.08 4.67M464.48 119.38c4.28-.79 7-5.45 8.95-9.35a14 14 0 0 0-2.73-14.4c2.73-1.55 6.64-1.94 9-5.07 2-3.89 3.5-8.17 2.33-12.84-4.65-9.34-15.57-10.51-24.12-14.78-6.63 16.34-15.18 32.31-20.64 48.66 9 3.5 17.14 8.94 27.25 7.78"/><path fill="#fff" d="M462.15 71.49c4.67 1.56 11.28 3.11 12.85 8.57a8.14 8.14 0 0 1-3.51 8.55c-5.45 4.3-10.51-1.55-15.17-2.72a51 51 0 0 1 5.83-14.4M467.21 100.3a11.57 11.57 0 0 1-3.12 10.51c-5.45 4.67-12.45.79-17.52-2l-.38-1.16 7-16c4.67 2.35 10.89 3.9 14 8.57"/><path fill="#018749" d="M244.17 117.81c5.82-.77 11.29-2.33 15.57-6.21 3.49-4.29 2.33-10.91.77-16l-1.94-.38c-7.79.38-2.34 6.61-3.9 10.89a12.18 12.18 0 0 1-8.17 6.23C234.82 108.87 234 94.86 229 85.5c-1.55-3.5-3.49-9.33 0-12.45a10.14 10.14 0 0 1 9.75-3.12c2.34 1.16 3.49 3.91 4.28 6.24 2.33.38 4.67-.79 6.61-2 0-2.71-1.56-4.27-3.11-6.61-5.44-7.76-17.13-3.49-23 2.34-8.57 12.85 3.5 24.93 7 36.59 2.72 4.68 7 11.69 13.63 11.29M227 126.38 201 81.6l-1.17-.38c-1.56 1.17-3.89 2-4.67 3.52l26.48 44.75c1.94.78 4.27-1.55 5.44-3.11M160.08 114.71c3.89-1.95 7-6.62 11.3-7l28 36.59c1.56-1.17 4.3-1.56 4.68-3.9-9-13.22-18.69-23.74-27.25-37 2.72-4.28 6.62-5 10.13-8.18.38-1.54-1.57-3.88-3.51-4.65l-26.09 18.68-.77 1.94c1.17 1.17 1.56 3.11 3.5 3.51M471.88 127.16c2.73 2.72 7 2.72 9.34-.78 7.4-10.9 14.79 4.28 22.2 6.22 1.15 4.68-3.12 8.58-1.95 13.24 1.56 1.56 3.89 3.12 5.83 2.73 5.05-17.14 9.72-35 13.63-52.56-2.72-1.17-3.91-4.27-7.41-4.27l-41.64 33.48z"/><path fill="#fff" d="m493.67 116.65 18.68-15.18c-1.54 7.4-3.88 16.74-7.38 24.14l-11.3-7.4z"/><path fill="#018749" d="M455.53 130.66c-69.68-35.43-172.06-31.53-236.66 13.24-87.2 54.89-126.13 158.43-103.55 257.7 16.35 83.28 94.2 162.7 176.72 181.77 84.87 21 171.27-1.94 231.61-62.67 67.74-66.55 88-174 52.56-261.2-19.85-54.5-68.91-105.1-120.68-128.84"/><path fill="#fff" d="M541.18 494.61c-55.67 71.64-141.71 104-231.61 88.76-81.37-13.23-160.39-82.12-184.91-161.54-28.8-88.37-5.46-192.68 68.89-254.19 63.85-58 169.33-74.74 249.13-38.53 52.95 21 103.16 68.89 126.14 121.45 35 75.51 25.67 179.05-27.64 244.05"/><path fill="#018749" d="M530.66 170.37c1.56-.79 3.1-2.33 3.1-4.27l-12-10.92-.79-2.72 29.58-33.08c0-2.34-3.11-3.9-5-4.67-12.07 13.63-23.74 24.52-34.25 39.32zM454.75 145.46c-75.9-40.87-183.73-31.15-249.51 25.29C135.94 226 109.1 316.34 129.73 402c17.51 76.27 87.58 149.06 164.27 167 80.57 21.8 164.25-2.34 221.49-60 62.27-62.27 79.8-158.44 49.82-240.18-20.25-52.54-58.78-97.31-110.56-123.38"/><path fill="#fff" d="M510.81 497.74c-57.22 61.51-149.87 84.86-230 55.65-70.08-22.56-130.79-93-142.88-164.64-14.78-81 12.47-161.94 79.43-213.33 61.88-49.81 160-58 230.45-21 44.37 22.58 79.79 58.4 100.41 102.77 35.82 77.86 23 177.89-37.36 240.57"/><path fill="#018749" d="M191.61 150.51c3.11-2.32-1.17-4.28-1.55-5.83-5.84 2.34-9.75 9.72-16 11.67-10.53-10.5-21-24.52-31.92-33.49-1.17.81-3.51 2.35-3.9 4.31l35.42 38.14zM167.86 171.15c-1.16-1.57-2.33-3.51-4.27-3.51l-11.68 13.62-2.73.79c-4.67-3.88-9-6.23-12.07-11.68L148 157.13c-.38-1.56-2.33-3.12-3.5-3.89l-12.45 12.84c-5.06-1.94-7.78-5.44-12.46-9v-1.95l11.67-14.41c-.77-1.54-1.94-3.5-3.88-3.88-5.46 7-12.86 14-17.52 21l40.48 33.48c6.61-5.84 11.69-13.22 17.51-20.24M535.33 176.21l14.4 16.79c1.56 3.5 5.45.38 6.23-2-3.12-5.45-9.34-8.94-11.28-15.18l34.24-30c-1.94-2-2.33-4.28-4.67-4.67l-38.92 33.48zM418.55 379c-6.61-.39-14 2.34-18.29-4.27-5.84-5.84-4.29-15.18-1.56-21.8 3.88-7.79 12.07-8.18 19.45-9.35 32.32 4.27 69.69 10.49 98.11-6.63 19.08-10.89 29.19-31.9 28.8-53.32 1.94-29.2-25.29-47.49-47.49-59.17-17.9-12.08-22.19-33.48-39.7-45.53-19.85-13.24-51.39-15.19-71.24-.79-23 17.53-17.52 47.87-16 73.18.4 17.52 3.91 40.09-7.38 54.5-2.73 1.17-5.84 0-7.8-2.72-9.72-26.49-3.88-56.07-7.38-83.7-3.51-16.74-12.47-30-21-44.38-6.23-7.39-10.9-15.94-20.24-19.46-27.25-5.84-50.23 10.13-65.4 30.36-18.69 29.2-55.28 26.87-75.52 53.72-9.73 16.35-11.3 42.81 0 59.17 24.13 37.75 73.58 24.91 112.11 23.36 9.73 0 20.24-.78 28.41 3.5 2.73 1.94 6.62 5.84 5.07 10.52-.79 6.61-7 13.23-12.86 15.18-35.8 14.39-74.33-8.57-110.15 3.09-17.52 7-27.63 24.93-30.37 42.45-4.67 26.08 16.74 45.14 37 58.38 22.2 12.46 26.48 35.83 41.66 52.94 17.9 18.3 43.59 26.47 68.51 20.63 32.7-21 22.57-68.89 16.74-101.2-1.17-6.22-1.55-14 3.89-18.29 3.89-2 11.29-2.74 13.62 2.32 6.23 27.25.39 57.23-2.73 84.86-6.22 14.42-6.61 32.69-21.79 42.05 15.18 1.94 30.36 3.5 45.16 2.71-9.74-40.07-2.34-82.5-.78-123.78 2.33-2.33 3.89-8.16 8.94-6.61 6.24 1.94 8.18 8.55 8.58 14.41-1.56 27.63-14 57.6 0 83.31 11.66 19.06 33.47 26.06 55.27 24.89 18.68 1.57 33.86-15.17 42-30 16.74-27.25 51.77-28 66.56-56.83 7-21.41 10.51-52.17-7-69.68-31.92-27.64-81-9.74-115.23 1.94"/><g fill="#fff"><path d="m533 405.49-2.74 1.51c-37 3.13-70.84 14-103.14 27.65-3.9-1.17-7.4-4.67-9.34-7.78 12.07-8.19 27.64-11.3 41.64-16.74 22.59-6.62 46.32-12.07 71.24-12.86zM525.21 388.75c-17.13 2.71-34.65 5.44-51 9.72-3.51-2-3.9 1.95-7 1.56-18.29 5.46-37 11.3-54.5 19.45-3.89-1.15-5.46-5.05-8.56-7.78l.39-1.15 22.58-8.19c2.73 2.72 3.12-1.94 5.44-1.94 27.25-7.78 54.5-14.8 82.52-21 3.9 1.55 8.57 5.05 10.13 9.35M425.16 388c24.54-6.23 47.49-19.86 75.14-15.18l1.17 1.16c-3.9 3.12-11.3 1.56-16 4.67-30 5.83-58 16.74-87.2 24.52a47.4 47.4 0 0 1-10.91-17.91c12.86-1.94 24.93 9 37.76 2.74M480.05 340.86c-24.52 4.29-45.53-5.84-68.9-7.4 1.56-3.88 5.84-6.22 9.34-8.55 22.18 6.21 46.34 5.83 69.68 9.72-.38 4.29-6.61 4.68-10.12 6.23M478.49 326.45c-16.33-1.54-32.31-4.65-47.87-7.78.39-2.73 2.73-4.67 5.06-5.83 25.68 5 52.17 5 78.64 8.17-7 15.95-23.36 3.9-35.83 5.44M522.1 314c-26.47-.78-52.55-3.89-78.26-7.78-1.17-3.5 3.91-4.29 6.25-5.44 7.39-.39 14.78 1.94 22.19 1.94 20.62 1.55 40.86-2.33 61.5-3.51-1.18 5.85-6.23 12.06-11.68 14.79M536.51 286c.38 1.56 0 2.34.38 4.28-25.7 4.27-55.27 6.61-81 3.1 1.57-13.61 17.53-4.65 26.1-7.38 17.12-1.17 33.48-4.29 49.83-7.79 4.67-.78 3.88 4.68 4.67 7.79M531.05 269.63v.78c-19.86 5.84-42 7.78-63.45 7.78a32.1 32.1 0 0 1 4.67-10.5c16.35-.39 36.2 0 51.77-5.47 4.68-.38 5.84 3.91 7 7.41M482.4 224.48c7 2.71 12.06 7.79 18.68 12.07-.39 2.71-4.27 3.49-7 4.27-3.9 0-8.18 1.55-11.67 0v-16.34zM481.22 249.38c8.95-1.16 19.08-.38 25.69-6.62 6.63 1.17 12.46 7.4 14 13.24-12.85 4.28-28.43 4.67-43.21 3.5 0-3.5.77-8.17 3.5-10.12M455.91 190.6c14.41 8.19 4.29 26.87 10.53 39.32-1.94 5.07-3.51 11.28-7.8 14.41-7.78-16-3.89-34.26-2.73-53.73M436.85 180.88l10.12 3.5c1.56 24.52-3.9 46.72 6.23 69.68-1.17 3.11-3.5 7-7 8.16-9.33-23.73-10.12-52.15-10.5-78.62zM419.72 178.94c2.73-1.58 5.84-.39 8.56 0l.38 6.22C428.28 215.53 431 242.37 440 270c-1.94 3.51-4.67 8.57-9.34 10.12-15.18-31.51-11.3-66.55-10.9-101.19"/><path d="m411.15 178.15.79 3.9c-2.34 35.81-1.56 71.62 12.84 104.7-2.72 3.11-5.83 7.79-10.11 8.18-17.53-34.65-14.8-75.13-16-111.33 2.73-3.49 7.78-5.45 12.45-5.45M389.35 192.16l.78.38 2 40.5-1.17.78c4.28 10.51 3.11 23 6.22 33.87 2.73 11.27 5.07 23.34 10.11 34.24-3.1 1.57-5.44 4.67-8.94 4.29A99.2 99.2 0 0 1 380.41 247c-3.9-17.51-3.9-40.87 8.94-54.88M391.68 310.88c-3.5 2.73-7.78 5.84-12.44 6.63-1.56-7.78 2.33-14.39 3.11-21.81h.77zM341.09 266.53c1.56 8.93.78 17.88.78 26.84-3.49 1.17-5.07-2.72-6.63-5.45-2.34-7.79 2.34-14.4 4.68-21.39zM326.69 200.73c6.21 9.72 8.55 22.58 11.29 34.25-4.29 12.85-3.51 28-8.56 40.48a29.5 29.5 0 0 1-8.57-8.57c1.95-21.79 3.5-44 5.84-66.16M303 166.48c9.33 1.56 13.23 12.07 16.72 19.45-2.34 23.37-2.34 46.72-5.83 70.47-3.89 0-6.61-5.45-9.73-7.4-1.16-26.86-.77-54.5-1.55-81zM294.37 165.7c2.34 25.3 2.34 48.65 1.17 73.18-4.28.38-7-3.89-9-7 0-20.61-2.35-44-3.51-64.61 2.74-2.34 8.19-3.88 11.29-1.55M274.92 170c2.33 18.68 4.67 37.76 3.5 55.65-3.12-.77-7.4-1.55-9.34-5l-4.29-45.93c2.74-3.12 6.23-4.29 10.13-4.67M257 180.88c3.11 10.49 2.73 23 4.67 33.86-.39 2.73-3.11 2-5.06 2.34-9.74-2.73-6.61-14.79-9.74-22.2 1.56-5 6.25-10.5 10.13-14M239.88 205c3.12.77 1.16 4.67 2.33 6.62a8 8 0 0 1-6.61-.38c.39-1.95 2.73-4.3 4.28-6.24M203.3 226.42c1.94-.79 4.65 0 6.22-.79a62.5 62.5 0 0 1-22.19 9.37c2.34-6.21 10.51-5.83 16-8.56M173.7 252.12c8.19-7 18.3-10.52 27.64-14.8a196 196 0 0 1 28.8-10.13c3.91 0 7.41.77 10.13 3.52l-1.17 1.56c-22.18 8.93-44 19.06-65.78 29.18-2.33-2.72.38-6.22.38-9.33M172.93 287.15c-2.34-4.69-1.17-9.74-.78-14.8 23.75-15.57 50.6-26.07 77.46-35.42a20.55 20.55 0 0 1 10.13 5.84c-8.57 5.46-19.47 8.18-28.81 13.23-19.47 9.36-38.93 19.85-58 31.15M176.81 296.48c26.49-23 58.41-35.43 90.31-46.32 4.69 1.57 9 5.07 10.51 9.35-34.25 6.62-65.4 21-93.41 42-2.73 0-5.84-2.73-7.41-5.07"/><path d="m190.05 308.94.39-2.34c27.26-22.56 59.17-35 94.2-40.07 3.91 0 6.63 4.65 8.57 7v1.94c-31.53 5.85-59.95 21-85.63 40.09-6.24-1.55-12.86-2.33-17.53-6.61"/><path d="M221.19 317.11v-1.56c23.75-17.91 50.23-30.74 81-31.14l6.25 8.95c.77 2.34-2.34 2.34-3.9 2.34-21.8 1.56-40.49 10.52-58.39 21-7.78-.78-17.14 1.95-24.92.39M268.31 314c11.28-7.78 25.69-10.88 40.86-10.88 9.33-2.34 8.95 8.93 12.47 13.6a242.3 242.3 0 0 0-53.33-2.72M287 365.38c-1.17 2.34-3.11 5.85-5.85 6.23-3.51.38-6.22-3.11-7.39-5.44 3.5-2 8.95-.79 13.24-.79M236 360.72l14.8 3.11c5.05 9 17.52 5.06 22.57 12.84-.78 2.73-3.11 3.51-5.05 5.07-9.74.38-16.35-6.23-25.31-7.79-17.14-2.34-33.88-5.05-50.62-7 10.92-9.72 29.21-7.38 43.61-6.22M178.78 375.13c28.8-1.18 55.27 4.65 81 12.43l-.4 3.9-2.38 1.18c-27.25-4.67-56.84-7.79-84.48-3.89-.77-5.46 2.73-10.13 6.25-13.62M171.76 397.69c4.67-4.27 12.07-1.94 17.91-3.5 20.62-1.17 40.47 1.56 59.94 4.67.79 3.11-2.34 6.22-5.06 7.78a317.2 317.2 0 0 0-72-3.5c-2.33-.78-1.54-3.51-.77-5.45M172.15 412.49c21-4.28 44.77-2.34 65.78 1.17l1.17.77c-.38 2.34-1.55 5.05-3.88 5.45-19.47-3.11-42.05-5.45-60 3.12a16.8 16.8 0 0 1-3.11-10.51M221.19 464.26c-2.71 0-4.65-2.33-6.21-4.27.77-2.75 5.83-4.29 7-.79zM208.74 453.75c-3.5 1.16-5.83-3.89-8.56-5.84 5.44-4.27 14.8-5.06 22.18-3.5l.79 2.34c-2 6.61-10.92 1.55-14.41 7M190.83 441.67c-3.1-3.49-7.4-6.22-9.73-10.1 4.67-5.84 13.62-5.84 20.64-7.42 9.72 0 19.07.4 27.63 2.75 1.95 3.5-2 6.22-3.11 9.33-12.45-1.17-24.13 1.95-35.43 5.44M249.61 501.25a3.19 3.19 0 0 1-5.06-1.17c-10.89-7.42-2.72-18.68-5.05-29.21-2.73-7.38-.78-14.4 3.5-20.24 3.88 1.17 3.11 5.84 4.66 8.95 2.74 13.63 2.34 27.64 2 41.67M262.85 515.26c-15.58-4.67-1.17-21.79-6.24-32.32a142.9 142.9 0 0 0-6.21-40.88c.77-3.88 3.88-7.38 6.61-10.11 7.39 17.91 7.78 40.48 8.17 61.52-.79 6.61.38 15.93-2.33 21.79M285.05 520.31c-3.92 2.33-9 .39-12.86-1.17l-1.19-2.32c2.34-30.37 1.56-63.07-7-90.33-.79-3.88 3.1-7 5.83-9.33a3.76 3.76 0 0 1 3.51 2.32c5.44 33.1 15.19 65.8 11.69 100.83M294 518.76l-1.16-.77c0-37.38-5.07-73.58-16-107.06a21.46 21.46 0 0 1 7.38-7c12.07 34.24 15.2 72 18.71 109.38-1.18 3.5-5.47 5-9 5.44M310.72 504.35l-1.15-2.72c-5.07-34.64-9.36-70.06-18.3-103.16 2.72-3.49 6.21-7 10.11-7.39l4.29 8.55c2.73 23.76 7.78 46.34 11.66 69.68 1.17 12.46 1.17 26.1-6.61 35M313.84 398.86c-1.95-3.88-7.4-8.95-4.67-14 3.89-2.34 7.39-6.23 12.47-5.84.77 7.4-1.56 14.8-7.8 19.85M388.18 502.79c-10.1-8.56-8.55-22.56-6.61-35.42 1.95-10.9 6.23-21 6.61-32.69a3.71 3.71 0 0 1 3.5 2.33c-3.11 21-.76 44.39-3.5 65.78M405.31 519.93c-5.84-3.11-9.72-7.79-8.17-15.2.4-20.23-.38-40.47 2-59.55 3.49 2.34 8.55 5.45 10.11 10.12-.77 21-1.56 44 1.94 64.23-.77 2.73-4.28 1.57-5.84.4M418.94 525c-2.72-20.25-3.11-43.58-2.33-63.83 4.27 1.94 11.3 3.5 12.05 9.72a274 274 0 0 0 5.07 51.39c-3.88 3.11-10.12 3.49-14.79 2.72M441.51 519.14c-5.05-14.41-4.66-30.36-4.66-45.93 5.45 1.17 11.29 3.12 14.41 7 0 8.55-.79 17.89 4.65 24.51a23.9 23.9 0 0 1-14.4 14.4M462.53 497.74c-1.95.38-3.49-1.94-3.11-3.51-.38-4.28-1.55-9.34 0-14l14.8.77c-2.73 6.22-8.18 10.89-11.69 16.74"/><path d="M422.45 457.64c-31.53-25.69-56.06-59.95-74-94.2-51.77 10.13-96.91 57.21-119.89 103.93-4.67-33.86 21-59.16 43.22-81.75 20.62-16.72 40.87-30.36 63.82-41.64-12.82-54.49-52.93-99.27-103.55-123.4l-1.12-1.58c11.68-3.11 22.58 2 32.69 5.46a193.5 193.5 0 0 1 33.86 24.9c22.6 23.76 43.61 51 57.23 80.57 8.17.79 16-3.5 24.14-5.44C421.28 306.6 456.7 267.3 475 226l1.17.4c2.34 33.86-21.79 62.29-47.49 84.85-18.69 16-38.93 28-59.55 39.32l-.4 2.35c12.47 51.76 57.23 99.25 105.5 121-19.47 3.52-36.6-5.44-51.77-16.34"/><path d="M491.73 472.43c-6.22-.39-12.46-1.56-17.51-4.67.77-4.67 5.83-5.06 8.56-7.38 11.29-5.86 24.52-7.41 37.37-9.36l.39.78c-7.79 9.72-18.68 14.4-28.81 20.63M528.72 441.67c-21.81 3.91-43.6 7-61.51 19.85-5.46 2.35-10.51-2.32-14.78-5.83v-.78c23.34-12.85 49.43-18.29 76.29-23l3.51.39c.77 3.5-1.57 6.61-3.51 9.33M533.78 423.79l-2.73 1.55c-30.75 3.89-60.34 10.5-86.81 24.51-3.9-2.33-10.12-5-9.72-10.12 30.75-13.24 64.23-22.57 99.26-24.52z"/></g><path fill="#018749" d="M130.1 218.64a20.58 20.58 0 0 0 11.3-18.3c-1.55-4.28-5.06-9-9.34-10.5-10.91 7 7.79 8.56 2.34 17.11-2 5.08-7.78 6.63-12.45 4.68-9.36-5.06-19.49-10.5-26.87-18.28-1.17-4.31-.39-8.19 3.88-11.3 2-1.94 5.07-1.17 7 .38 3.5 3.5 4.28-2.32 5.84-4.28-3.9-4.29-12.07-5.82-16.35-1.54-3.12 3.88-7.4 7.78-7 12.83a12.16 12.16 0 0 0 3.89 11.29c11.28 7 22.58 19.46 37.75 17.91M568.81 212.8c-3.11 8.17 2.73 15.57 8.55 20.23 5.46 1.17 10.52 1.17 15.19-1.94-.39-2.34-1.95-3.89-2.73-5.84-3.5-.78-4.67 2.73-7.78 1.56-3.89 0-5.45-2.34-7-5.44-1.95-3.52 0-7.4 3.12-10.13 9.73-5.05 19.07-13.63 30.35-14.41a11.69 11.69 0 0 1 6.62 9.72c.41 3.13-3.5 4.29-5.45 6.25.78 1.94 1.17 5 3.11 5.82a18.6 18.6 0 0 0 7.8-5.82c1.95-4.28 1.16-8.58-1.17-12.86a16.26 16.26 0 0 0-16.35-9.72c-12.07 6.61-26.87 9.72-34.25 22.58M118.43 245.49a4.35 4.35 0 0 0-5.45-2.72 98.8 98.8 0 0 1-7.4 18.68l-10.5-3.11c-12.85-2.34 0-13.24 0-19.85l-1.55-1.94c-1.18-.4-3.14-1.56-4.69 0a81.3 81.3 0 0 1-6.21 16c-5.07-1.18-10.92-2.33-14.8-5.85l5.83-17.51c0-2.73-3.12-2-4.67-3.13-3.89 7.79-6.23 16.75-9.72 25.31 15.95 6.63 33.08 13.2 49.82 18.63zM582.82 247.05l9.73 23.36 4.28-2.34-5.83-17.13 1.18-1.55L633.81 233c-.39-2.34-.77-5.45-3.1-6.22l-47.5 18.68zM652.1 296.09c.79-1.56 0-4.27-.77-6.21-13.63.77-25.69 6.61-39.7 8.16-3.88-.78-8.19-1.17-9.35-5.84-.78-3.11-2.33-8.55 1.56-10.9 13.23-5.83 28.42-7.78 42.44-11.67v-1.56l-.79-4.68c-6.23-.38-11.68 3.12-17.51 3.12-10.13 4.29-23.37 2.73-30.76 12.07-4.27 6.63-.77 15.18 2.34 21 3.5 4.27 8.19 5.06 13.24 5.06zM55 270l-1.16 1.17c-.78 1.56-2 3.9-.4 5.84 7 1.56 14.41 1.94 21.41 4.68-1.16 5.83-1.16 12.46-4.27 17.52l-20.64-3.91a6.18 6.18 0 0 0-1.94 6.64c17.51 3.5 35 7 51.77 10.11l.79-6.22c-7.42-2.33-16-1.94-22.6-5.44.78-5.85.78-12.47 3.92-17.14l21.39 3.9c2.73-.4 2.73-4.28 2.34-6.63zM655.23 315.55c-17.14-.38-35.43 1.56-51.4 2.34l-1.54 1.17c1.94 8.95-2 22.59 7.4 29.59 4.27 1.55 9.72 3.49 14.77 1.17 3.91-1.17 5.47-5.46 7-9 1.94 0 2.33 2 3.5 3.5 3.5 3.13 9 3.5 13.24 2.73 14.41-5 6.22-20.62 7-31.54"/><path fill="#fff" d="M625.26 341.25c-2.74 1.57-6.62 3.11-10.13 1.57-6.63-2.73-5.85-11.3-5.85-17.14 5.08-1.94 12.07-1.17 17.15-1.94l1.53 3.11c-.36 5.06.8 10.9-2.7 14.4M649.39 337.36c-2.73 3.89-7.79 3.12-11.3 2.34-5.05-3.51-3.5-10.12-3.88-15.57 4.66-1.56 10.51-1.17 15.18-1.17.77 4.68 1.94 10.12 0 14.4"/><path fill="#018749" d="M51.48 316.34c-1.56-.38-3.9-1.55-5.44-.38-.78 11.66-1.57 23.73-.78 34.63h5.05c.78-4.29-.77-10.13 1.17-13.61l46.72 1.54v-5.84c-15.19-2.32-32.31-1.16-46.33-3.1zM227.42 595.05c-4.27-9.74-5.83-20.62-12.46-28.81-6.61-9-19.07 0-26.07-6.61-5.06-3.51-2.33-10.51-1.95-15.58-3.11-8.56-12.45-1.16-18.29-2.33-8.19-2.72-6.23-12.07-7.8-18.68-5.44-14.79-22.57-11.68-34.64-14.79-8.56-8.17-4.67-22.58-12.85-31.15-2.33-1.16-4.67-3.5-7-2a119.5 119.5 0 0 1 5.83 31.14c0 7-5.44 12.47-3.89 18.7 11.29-2 23.36-4.29 33.87.77a18.55 18.55 0 0 1 9.34 11.68c.79 4.67-.38 9.72-4.29 12.85-7.78 13.61 12.07 5.06 16 14 6.23 4.27 9 10.9 11.67 17.51 5.07 3.9 8.57-6.22 12.86-7.38 3.51-.78 8.56-2 11.66.39 14 8.16 13.64 25.29 14 40.08h1.17c12.84-10.12 31.52-8.16 47.87-7-4.65-16.34-24.12-6.23-35-12.84M591.39 482.94c-14 5.45-8.19 23-17.14 32.32-10.51 2.71-23 .77-31.52 7-5.84 5.45-4.67 13.23-6.24 20.25-4.65 9.34-14 2.73-20.62 2.73-5.85 2.33-2.74 8.94-2.74 13.22-2.32 14.42-17.52 4.67-26.07 9.34-8.55 5.08-9 14.41-12.46 22.19-1.55 17.13-22.57 8.17-33.08 12.85-2.72 1.95-6.23 4.28-5.46 7.78 16.75-2 35-2 47.89 8.57l1.55-.77c.39-13.24-.77-27.27 9.75-36.21A15.57 15.57 0 0 1 510 579.1c5.85 1.15 7 11.28 13.63 8.55 3.5-5 4.28-12.07 10.52-16.35 5.45-5.44 13.61-4.67 19.85-8.17 0-4.67-3.91-7.78-5.85-11.67a15.93 15.93 0 0 1 3.12-14.41c5.05-6.22 12.83-7 20.63-7.39 6.61.38 13.63 3.11 19.84 2.72-7-15.57-2.71-33.86 1.57-49.05zM298.27 595.05c-3.5 3.11-12.07 3.11-9.73 10.11 2.73 0 5.06-3.1 7.4-1.56-1.95 14-5.86 27.26-7.4 41.26l6.23.41 9.72-46.33c1.56-4.27-3.88-3.5-6.22-3.89M411.15 619.19a28 28 0 0 1 2.73-4.67c1.94-4.69.77-10.52-2-14.4-4.65-7-15.95-5.07-21.39 0-1.95 3.5-3.11 8.17-1.57 12.07.79 3.88 4.28 7 7.78 8.55.4 2.33-1.94 2.73-3.1 4.27-2.73 5.08-.4 10.91.77 16 2.34 3.88 6.25 7.79 11.69 7.4a15.32 15.32 0 0 0 12.46-5.85c2.72-3.88 1.55-8.16 1.16-12.83a13.22 13.22 0 0 0-8.57-10.51"/><path fill="#fff" d="M396 610.62a10 10 0 0 1 1.55-8.17c4.68-3.12 9.75.77 10.13 5 .39 3.91-.38 8.57-4.28 9.35s-6.63-3.12-7.4-6.23M408.43 642.15c-4.27 1.18-6.61-2.73-7.77-5.84-1.19-3.5-1.58-7.39 0-10.9 1.16-1.95 3.5-1.95 5-2.34 4.28-.39 5.84 3.88 7 7.4.38 4.28 1.55 10.51-4.28 11.68"/><path fill="#018749" d="M340.7 605.56c-3.88-7.4-13.24-7.78-19.85-5.45a9.09 9.09 0 0 0-5.06 8.17c-1.55 5.45.78 10.91 4.29 14.79-4.68 1.56-6.63 5.84-7.4 10.52-.4 5.45-.4 10.89 3.89 14.77 3.51 3.91 9.72 3.91 14.79 2.75 4.29-1.17 7-5.46 7.78-9.36 1.17-6.22 1.56-14.4-4.66-17.89l5-4.67a16.78 16.78 0 0 0 1.17-13.63"/><path fill="#fff" d="M328.23 644.88c-3.1 1.55-7-.79-8.15-3.5-.79-4.67.38-8.57 1.54-12.47 3.51-5 12.07-1.94 11.3 4.28-.39 4.29-.39 9.73-4.69 11.69M329.4 620c-3.88.78-6.61-2.71-7-5.83s0-6.24 2.32-8.57c3.12-3.11 9-.77 9.36 3.5s-.4 9.34-4.69 10.9"/><path fill="#018749" d="M373.39 624.63c-1.55-1.94 2-1.94 2.73-3.88 1.94-3.89 3.11-9.35 1.17-14-3.11-7-12.46-8.16-18.68-5.84a11.63 11.63 0 0 0-7 9.34c0 5.85 2.34 11.68 7 14.4-3.5 3.11-5.84 6.22-5.84 10.51 0 5.84.39 11.68 5.44 15.18 3.9 3.12 10.53 3.12 14.8 1.18 5.05-1.94 6.62-7.41 7-12.07-.37-5.44-.77-12.07-6.61-14.8"/><path fill="#fff" d="M364.05 605.18c3.11 0 6.63 1.94 7 5.05 0 3.11 0 7-2 9.73-1.95 1.17-4.68 1.94-6.62.4-3.11-1.94-3.5-5.84-3.5-9-.38-3.11 2.33-5.45 5.06-6.22M371.84 644.48c-2.33 1.95-5.85 3.11-8.56 1.57-2.73-2.73-4.67-6.24-3.9-10.91 0-3.1 1.56-7 5.05-7.78 3.9-1.17 7.41 1.95 8.19 5.45.39 3.89 1.56 8.17-.78 11.67"/></svg>