<svg xmlns="http://www.w3.org/2000/svg" viewBox="0 0 421.41 700"><path fill="#fff" d="M209.28 213.76c111.89 0 203.15 91.26 203.15 203.15s-91.26 203.16-203.15 203.16S6.13 528.8 6.13 416.91s91.26-203.15 203.15-203.15"/><path d="M2.73 700v-51.56h45.88v11.32H20.32v9.69h26.12v11.29H20.32V700zm94-20.56-8.22-18.74-8.72 18.74zM70.5 700H53.23l26.67-51.56H99L124.45 700h-19.19l-3.88-9.31H74.66zm107.13-11.26V700h-44.44v-51.56h17.59v40.31h26.85zM190.37 700v-51.56h17.31v19.32l18.07-19.32h21.14l-20.52 22.12L250.16 700h-21.77l-20.72-26.22V700zm69 0v-51.56H277V700zM311 658.88v10.32h9.77A8.57 8.57 0 0 0 326 668a4.54 4.54 0 0 0 1.64-3.9 4.72 4.72 0 0 0-1.57-4c-1-.79-2.79-1.2-5.23-1.2H311zM293.8 700v-51.56h29.51a87 87 0 0 1 12.58.59 14.2 14.2 0 0 1 5.42 2 10.5 10.5 0 0 1 3.63 4.32 14.4 14.4 0 0 1 1.28 6.14 10.8 10.8 0 0 1-3.42 8.29c-2.27 2.14-5.41 3.35-9.41 3.66q6.28.35 9 2.42c1.81 1.39 2.88 3.7 3.22 6.95l1 8.57a31 31 0 0 0 .69 3.88c.33 1.49.75 3.06 1.23 4.75H330.6a18 18 0 0 1-.8-3.12 40 40 0 0 1-.43-4l-.48-7.14c-.13-2.3-.66-3.87-1.55-4.68s-2.72-1.23-5.47-1.23H311V700zm67.82 0v-51.56h17.3v19.32L397 648.44h21.13l-20.51 22.12L421.41 700h-21.77l-20.72-26.22V700zM230.19 208.68 207.68 0l-22.56 209a207.2 207.2 0 0 0-45.77 10.63v-.11l-3.76 1.5C56.43 250.94 0 327.46 0 416.91c0 115.4 93.88 209.28 209.28 209.28s209.28-93.88 209.28-209.28c0-108.34-82.75-197.71-188.37-208.23M43.3 523h.05l-3-4.89c-2.62-29.7-4.9-66.67-4.9-105.65 0-32.4 1.6-66.14 5.85-98.19l5.23-8.11h-.05q2.69-3.93 5.55-7.72l12.2 15.75 5.85 7.64c-7.6 24.72-18.79 132.52-1.78 214-2.63 3.68-5.07 7.32-7.31 10.8A198 198 0 0 1 43.3 523m241.4-288.1a197.8 197.8 0 0 1 51.16 31.15l-.05.05a200 200 0 0 1 20.95 20.65c-5.4 6.83-10.64 13.69-15.35 19.87l-6 7.79a698 698 0 0 0-71-9.81c7.37-27 14-49.89 20.24-69.7zm48.85 91.6c2.25 10 5.52 33.06 7.57 62.14-28-6.19-59.8-10.18-92.79-12l-6.63-61.39a680 680 0 0 1 91.85 11.22zm1.92 204.5q-8.33 3.45-17.37 6.39l-4.74-32.43-25.57 37.92-2.75-56q28.33-3.35 56.87-9.16a412 412 0 0 1-6.44 53.28m-243.7 43.85a202 202 0 0 1-22.08-19.2c2.48-3.93 5.25-8.13 8.25-12.34 5.65 2.26 11.52 4.32 17.53 6.24zm68.71-137.49-26-36.25-3.61 73.48q-29.25-3.51-58.74-9.68c-1-22.16-.69-43.84.34-63.32 27.83-6.51 59.89-10.7 93.19-12.62l-5.22 48.39zm-30.17 49.5-2.74 56L102 504.93l-4.74 32.42q-9.06-3-17.42-6.41a417 417 0 0 1-6.94-53.36q28.85 5.9 57.42 9.28zm212.22-21.81q-29.17 6.07-58.09 9.54l-3.61-73.48-26 36.25-5.17-48.36c32.92 1.9 64.63 6 92.24 12.4 1.07 19.76 1.47 41.6.63 63.68zM167 376.67c-33.37 1.81-65.55 5.88-93.74 12.19 2.15-30.5 5.82-53.88 8.08-62.28a680 680 0 0 1 92.28-11.3zm-87.09-62.26L74 306.66l-14-18a199.7 199.7 0 0 1 22.36-22.22v-.05a197.5 197.5 0 0 1 49.45-30.59c7.11 21.77 13.58 44.86 19.3 68.81a700 700 0 0 0-71.18 9.83zm240 235.14c6-1.92 11.83-4 17.46-6.21 3.37 4.74 6.56 9.56 9.54 14.28a197 197 0 0 1-20.73 17.72c-.75.57-1.52 1.12-2.29 1.68l-4-27.52zM347 535.7c9.32-46.05 9.47-100 6.73-142.9l.28-1.09-.36-.08c-2.14-32.76-6-58.85-8.61-69.64l6.08-7.94c4.25-5.57 8.93-11.71 13.74-17.84q2.46 3.15 4.78 6.4h-.05l3.13 4.54c5.3 35.72 7.14 73.37 7.14 108.31 0 43.17-2.79 82.15-5.27 108.31l-2.39 3.62a198 198 0 0 1-16.59 21.13c-2.7-4.27-5.59-8.6-8.66-12.9zm41.5-200.58a196.88 196.88 0 0 1 .61 162.26c3.09-43.22 5.12-103.54-.61-162.26M273.22 230.54c-6.5 20.67-13.47 44.69-21.2 73.12-3.88-.26-7.77-.5-11.65-.69l-8.83-81.82a195.5 195.5 0 0 1 41.68 9.39M175 303q-5.76.28-11.52.68c-6-25.21-12.76-49.5-20.25-72.36a195.7 195.7 0 0 1 40.56-9.75zM25.69 345.4c-3.94 49.73-2.65 100.93.12 143.33a197 197 0 0 1-.12-143.33"/></svg>