<svg xmlns="http://www.w3.org/2000/svg" viewBox="0 0 732.52 700"><path fill="#f6be5f" d="M366.25 25.16C347.07 17.19 299.34 0 244.32 0 179.65 0 117.94 29.44 70.53 82.9 25.71 133.46 0 199.45 0 263.94c0 133.42 62.61 251 181.06 339.92 88.29 66.33 175.53 93.22 179.21 94.33l6 1.81 6-1.81c3.67-1.11 90.92-28 179.22-94.33 118.45-89 181.07-206.5 181.07-339.92 0-64.49-25.72-130.48-70.53-181C614.59 29.44 552.87 0 488.2 0c-55.02 0-102.75 17.19-121.95 25.16"/><path fill="#9f1931" d="M366.25 40.12c-12.56-5.63-62.82-26.36-121.93-26.36-60.67 0-118.74 27.8-163.49 78.27-42.62 48.08-67.07 110.74-67.07 171.91 0 162.88 95.47 268.78 175.56 328.92 86.37 64.88 174.06 91.89 174.94 92.15l2 .6 2-.6c.88-.26 88.58-27.27 175-92.15 80.08-60.15 175.55-166 175.55-328.92 0-61.17-24.44-123.83-67.07-171.91-44.8-50.47-102.87-78.27-163.54-78.27-59.11 0-109.39 20.73-121.95 26.36"/><path fill="#f6be5f" d="M158.07 319.21h22.74c7.37 0 9.11 1.49 9.91 8.64h3.1v-21.19h-3.1c-.7 6.21-2.31 7.36-9.34 7.36h-23.31v-25.47h23.31c9.34 0 11.41 1.51 12 9.23h3.11v-14.41h-60.08v3.11c6.57 0 8.88 2.07 8.88 8.41V343c0 6.1-1.51 9-8.88 9v3h31.69v-3.1c-8.64 0-10-2-10-11.07v-21.62M603.72 335.81h-3.28c-6.13 10.94-15.66 16.94-26.39 16.94-16.74 0-29.33-15-29.33-35.16 0-19.47 10.95-32.37 27.37-32.37 12.14 0 21 6.45 25.06 18.31h3.29l-.55-19h-2.74a2.41 2.41 0 0 1-2 .81c-3.17 0-11.6-3.81-23.52-3.81-27.71 0-40.18 19.47-40.18 39.07 0 20.62 13.79 36.29 39.29 36.29 9.3 0 16.86-2.66 21.79-2.66a7.7 7.7 0 0 1 3.72.82l7.44-19.24M357.12 154a9.14 9.14 0 1 1 9.13 9.13 9.13 9.13 0 0 1-9.13-9.13M403.33 185.9h21.12v-2.79c-6.28-.52-8.46-.52-7.8-11.59l2.28-38.26h.19l22.37 52.64h3.23l22-54h.19l2.57 38.17c.76 11-.58 13-8.37 13v2.79h27v-2.79c-5.62 0-7.43-.42-7.8-5.69l-3.44-47.06c-.37-4.76.77-6 6.1-6v-2.79h-17.61L446 169.46l-20.6-47.89h-17.6v2.79c5.52 0 6.56 1.35 6 10.55L411.5 173c-.56 9-2.28 10.14-8.17 10.14v2.79M270.13 155.44h39.28v17.84c0 7.33-1.33 9.49-8.73 9.8v2.79h27.9v-2.79c-7.59-.51-8.64-2.26-8.64-9.59v-38.9c0-7.94 1.15-9.69 8.64-10.1v-2.79h-27.9v2.79c7.78.31 8.73 2.47 8.73 10.83v15.47h-39.28v-15.37c0-9 1.32-10.62 8.44-10.93v-2.79h-27.43v2.79c7.4.09 8.45 2.68 8.45 10.41v38.48c0 6.92-.76 9.19-8.45 9.7v2.79h27.43v-2.79c-7.59-.2-8.44-3-8.44-9zM382.45 543.28h7.37L412 486.72v-2.9h-37.46l-.75 13.8h2.69c.93-5.31 1-5.78 6.06-5.78h21.8zM423 520.73l17-25.62h.18v25.62zm17.14 22.55H449v-17.14h8.58v-5.41H449v-38.4h-3.92L418 522.88v3.26h22.18zM278.49 543.27h26.74v-2.51h-4.67c-3.53 0-4.37-.85-4.37-4.3v-52.65H292c-3.82 4.94-10 9.87-17.05 13.79l1 2.14a43.5 43.5 0 0 0 11.37-5.87v42.59c0 3.81-.47 4.3-4.38 4.3h-4.47v2.51M327.61 528.82c0-5.49 2-9.42 6.61-13 13.79 6.7 15.19 9.86 15.19 14.72 0 6.44-4.66 11.38-10.81 11.38-6.52 0-11-5.32-11-13.15m.46-32.9a9.68 9.68 0 0 1 9.88-9.68c6.25 0 10.25 4.37 10.25 11.18 0 5.22-2 8.94-6.53 12.11-10.66-5.26-13.59-8.24-13.59-13.56zm-7.17 3c0 6.71 3.07 11.1 11 15.56-8.21 3.27-12.12 8-12.12 14.45 0 9 8 15.84 18.45 15.84 10.9 0 19-7.36 19-17.23 0-7.28-3.35-11.46-13.22-16.69 7.17-2.32 11.56-7.17 11.56-13 0-7.83-7.56-14-17.34-14s-17.32 6.53-17.32 15.1zM324.92 563.92h82.68v7.62h-82.68z"/><path fill="#d0d2d3" d="M446.09 87.38a182.3 182.3 0 0 1 37.2-4.38A126 126 0 0 1 506 85l15.67-54.35a183.8 183.8 0 0 0-33.48-3.12 271 271 0 0 0-53.52 5.65zM570.6 113.51A186 186 0 0 1 592.26 132a195 195 0 0 1 21.07 24.93L661 126.35a256 256 0 0 0-19.62-25.19 241.3 241.3 0 0 0-34-31.7zM436.84 641.73a643 643 0 0 0 62.32-35.08l-29.24-42.53a561 561 0 0 1-59.38 32.75zM295.67 641.73 322 596.87a559 559 0 0 1-59.38-32.76l-29.24 42.55a642 642 0 0 0 62.29 35.07M291.13 88.45c36.67 8.62 69.07 24.65 75.12 27.74 6.06-3.09 38.47-19.12 75.13-27.73L430 34.16c-35.52 7.75-60.37 19.56-60.73 19.73l-3 1.45-3-1.45c-.36-.17-25.2-12-60.7-19.72zM649.3 288.63a307.3 307.3 0 0 1-10.19 63.06L691 366.91a369.7 369.7 0 0 0 13-75.77zM663.68 130.36l-47.57 30.5A197.7 197.7 0 0 1 642 215.7l54.53-13a255.1 255.1 0 0 0-32.85-72.34M617.08 504.67a391.3 391.3 0 0 0 40.92-58.8L611.84 419a344 344 0 0 1-33.68 50.2zM603.52 66.62c-23.79-17.4-49.88-29.26-77.1-35l-15.67 54.31c19.25 4.16 38.25 12.6 55.93 24.76zM637.8 356.34a309 309 0 0 1-23.66 58.46l46.26 26.9a357.2 357.2 0 0 0 29.26-70.15zM226.5 85a126 126 0 0 1 22.73-2 182.3 182.3 0 0 1 37.2 4.43l11.41-54.21a271.8 271.8 0 0 0-53.52-5.65 183.8 183.8 0 0 0-33.48 3.12zM697.74 207.33l-54.46 13a191.4 191.4 0 0 1 6.62 49.53c0 4.72-.13 9.36-.32 14l54.77 2.5c.41-7.39.64-14.85.64-22.39a231 231 0 0 0-7.25-56.64M82.62 269.87a191.4 191.4 0 0 1 6.62-49.53l-54.46-13a230.5 230.5 0 0 0-7.25 56.61c0 7.53.23 15 .64 22.39l54.77-2.5c-.2-4.61-.32-9.26-.32-13.97M202.68 519.48a406 406 0 0 1-45.3-46.48l-38.85 35.37a472.4 472.4 0 0 0 50.68 50.53zM258.55 561.51c-11.28-7.29-22.83-15.37-34.37-24.3-5.87-4.54-11.86-9.4-17.87-14.56l-33.46 39.4c7.85 6.63 15.91 13.18 24.39 19.57 10.74 8.07 21.49 15.52 32.08 22.42zM406.17 598.92A410 410 0 0 1 367 615.06l-.71.24-.71-.24a407 407 0 0 1-39.2-16.14L300 643.86c34 16.43 59.41 25.12 66.24 27.34 6.83-2.22 32.26-10.91 66.25-27.35zM575.13 473a403.4 403.4 0 0 1-45.3 46.48l33.48 39.41A471.4 471.4 0 0 0 614 508.36zM526.2 522.65c-6 5.16-12 10-17.86 14.56-11.54 8.93-23.1 17-34.38 24.3L503.19 604c10.6-6.89 21.34-14.34 32.07-22.41 8.48-6.39 16.55-12.94 24.41-19.57zM118.38 414.8a308.4 308.4 0 0 1-23.66-58.46l-51.86 15.21a356.4 356.4 0 0 0 29.26 70.15zM119.19 156.92A193.6 193.6 0 0 1 140.26 132a186 186 0 0 1 21.65-18.48l-36.82-44.06a242 242 0 0 0-34 31.7 256 256 0 0 0-19.61 25.2zM68.85 130.36A254.6 254.6 0 0 0 36 202.67l54.52 13a197.5 197.5 0 0 1 25.86-54.84zM93.41 351.7a307 307 0 0 1-10.2-63.07l-54.69 2.51a370.8 370.8 0 0 0 13 75.77zM154.35 469.25A344 344 0 0 1 120.67 419l-46.16 26.87a393.4 393.4 0 0 0 40.92 58.81zM206.11 31.6c-27.23 5.75-53.33 17.62-77.12 35l36.84 44.07c17.64-12.17 36.72-20.61 55.93-24.77z"/><path fill="#00529b" d="m465.86 422.16 90.28 65.52a358 358 0 0 0 43.33-56.4L499 358.36a135.5 135.5 0 0 1-33.14 63.8M133.05 431.28a357.5 357.5 0 0 0 43.34 56.4l90.28-65.53a135.45 135.45 0 0 1-33.16-63.78zM494.13 284.5l132.51-96.17a191.7 191.7 0 0 0-37.59-53.11c-1.46-1.45-2.95-2.85-4.44-4.24l-131.1 95.15a136.26 136.26 0 0 1 40.62 58.37M279 226.13 147.92 131c-1.5 1.39-3 2.79-4.45 4.24a191.9 191.9 0 0 0-37.59 53.11l132.5 96.17A136.37 136.37 0 0 1 279 226.13"/><path fill="#fff" d="m480.38 403.41 91.46 66.39q7.44-9 14.45-18.8l-94.76-68.78a135.3 135.3 0 0 1-11.15 21.19M146.23 451c4.67 6.5 9.49 12.79 14.44 18.79l91.47-66.39A135 135 0 0 1 241 382.24zM615 167.49a191 191 0 0 0-14-19.14l-130.55 94.77A136.3 136.3 0 0 1 484 262.58zM131.51 148.35a191 191 0 0 0-14 19.15l131 95.07a137 137 0 0 1 13.54-19.45z"/><g fill="#c6c7c9"><path d="M476.89 327.81a110.1 110.1 0 0 0-7.57-38.07l19.06-7.9a130.6 130.6 0 0 1 9.14 46zM455.75 387.16 440.46 377a87.2 87.2 0 0 0 11.48-27.62l18 3.58a107 107 0 0 1-14.19 34.2M427.1 417.1l-10.25-15.33A88.7 88.7 0 0 0 438 380.62l15.27 10.21a105.3 105.3 0 0 1-26.17 26.27M406.92 428.2a106.5 106.5 0 0 1-17.78 5.57l-3.59-18.06a87.2 87.2 0 0 0 27.62-11.48l10.23 15.32a107 107 0 0 1-16.48 8.65M366.4 436.28a106 106 0 0 1-18.68-1.73l3.58-18a86 86 0 0 0 29.91 0l3.6 18.07a105.4 105.4 0 0 1-18.41 1.66M309.12 419.52l10.22-15.29A87.4 87.4 0 0 0 347 415.71l-3.59 18a107.1 107.1 0 0 1-34.29-14.19M279.18 390.88l15.34-10.26a88.5 88.5 0 0 0 21.14 21.15l-10.21 15.28a105.5 105.5 0 0 1-26.27-26.17M266 371.54l2-.85a106.7 106.7 0 0 1-5.57-17.77l18.07-3.59A87.2 87.2 0 0 0 292.05 377l-15.32 10.23a106 106 0 0 1-8.65-16.49zM276.75 272.88 292 283.11a87.4 87.4 0 0 0-11.47 27.62l-18.05-3.59a107 107 0 0 1 14.27-34.26M305.4 242.94l10.25 15.34a88.6 88.6 0 0 0-21.14 21.15l-15.29-10.22a105.6 105.6 0 0 1 26.18-26.27M325.59 231.85a106.4 106.4 0 0 1 17.77-5.57l3.64 18.06a87.4 87.4 0 0 0-27.62 11.48L309.1 240.5a106 106 0 0 1 16.49-8.65M366.12 223.75a106 106 0 0 1 18.68 1.73l-3.58 18a86.7 86.7 0 0 0-29.92 0l-3.6-18.07a105.4 105.4 0 0 1 18.42-1.66M423.4 240.52l-10.22 15.29a87.4 87.4 0 0 0-27.62-11.47l3.59-18.05a107 107 0 0 1 34.25 14.23M453.34 269.17 438 279.42a88.4 88.4 0 0 0-21.14-21.14L427.07 243a105.9 105.9 0 0 1 26.27 26.17M470 307.13l-18.06 3.6a87.4 87.4 0 0 0-11.47-27.63l15.31-10.23A104 104 0 0 1 470 307.13M426.71 387.35l-17-17a59.4 59.4 0 0 0 10.45-15.59l22.23 9.24a83.8 83.8 0 0 1-15.68 23.35M400.18 406.16 391 383.92a59.7 59.7 0 0 0 15.6-10.46l17 17a83.5 83.5 0 0 1-23.42 15.7M368.47 413.38v-24.12a58.9 58.9 0 0 0 18.41-3.66l9.22 22.26a83.1 83.1 0 0 1-27.63 5.52M336.41 407.86l9.22-22.26a58.9 58.9 0 0 0 18.37 3.66v24.12a83.2 83.2 0 0 1-27.59-5.52M308.93 390.47l17-17a59.5 59.5 0 0 0 15.59 10.46l-9.22 22.24a83.8 83.8 0 0 1-23.37-15.7M290.12 364l22.24-9.22a59.7 59.7 0 0 0 10.46 15.59l-17 17a84 84 0 0 1-15.7-23.37M305.8 272.7l17 17a59.3 59.3 0 0 0-10.46 15.6l-22.24-9.22a83.8 83.8 0 0 1 15.7-23.38M332.33 253.88l9.21 22.25a59.5 59.5 0 0 0-15.6 10.45l-17-17a83.5 83.5 0 0 1 23.39-15.7M364 246.66v24.12a58.9 58.9 0 0 0-18.41 3.66l-9.22-22.26a83.4 83.4 0 0 1 27.63-5.52M396.1 252.18l-9.22 22.26a58.9 58.9 0 0 0-18.41-3.66v-24.12a83.4 83.4 0 0 1 27.63 5.52M423.58 269.57l-17 17A59.5 59.5 0 0 0 391 276.13l9.21-22.25a83.7 83.7 0 0 1 23.37 15.69M442.39 296.09l-22.24 9.21a59.4 59.4 0 0 0-10.45-15.59l17-17a84 84 0 0 1 15.69 23.38M425.5 327.81a58.9 58.9 0 0 0-3.66-18.41l22.26-9.22a83.1 83.1 0 0 1 5.51 27.63zM288.42 300.18l22.25 9.22a58.9 58.9 0 0 0-3.67 18.41h-24.1a83.2 83.2 0 0 1 5.52-27.63M307 332.23a59 59 0 0 0 3.66 18.42l-22.26 9.22a83.2 83.2 0 0 1-5.53-27.63zM444.09 359.87l-22.25-9.22a59 59 0 0 0 3.66-18.42h24.11a82.9 82.9 0 0 1-5.52 27.64M279.71 315.07a88 88 0 0 0-1.3 15 87.7 87.7 0 0 0 1.3 15l-18.08 3.6a102.6 102.6 0 0 1 .08-37.09zM472.52 329.88a105.7 105.7 0 0 1-1.74 18.68l-18-3.57a86.7 86.7 0 0 0 0-29.92l18.06-3.59a104 104 0 0 1 1.68 18.4M467.6 285.66a110.1 110.1 0 0 0-21.54-32.32l14.53-14.53a131.6 131.6 0 0 1 26.1 38.93zM442.89 250.25a110.9 110.9 0 0 0-32.29-21.53l7.93-19.14a131.7 131.7 0 0 1 38.93 26.09zM406.53 227a110.9 110.9 0 0 0-38.06-7.59v-20.66a130.6 130.6 0 0 1 46 9.14zM364 219.38a109.6 109.6 0 0 0-38 7.62l-7.9-19.07a130.8 130.8 0 0 1 46-9.14zM321.89 228.68a110.3 110.3 0 0 0-32.32 21.53L275 235.68a132 132 0 0 1 39-26.1zM286.49 253.39A110.9 110.9 0 0 0 265 285.67l-19.15-7.92a131.9 131.9 0 0 1 26.1-38.94zM263.24 289.75a111.2 111.2 0 0 0-7.6 38.06H235a130.6 130.6 0 0 1 9.15-46zM255.61 332.24a109.9 109.9 0 0 0 7.59 38.07l-19.07 7.9a130.4 130.4 0 0 1-9.14-46zM264.92 374.4a110.2 110.2 0 0 0 21.53 32.3l-14.54 14.54a132 132 0 0 1-26.1-38.94zM289.63 409.79a111 111 0 0 0 32.28 21.52L314 450.46a131.9 131.9 0 0 1-39-26.09zM326 433a110.9 110.9 0 0 0 38.06 7.59v20.67a130.6 130.6 0 0 1-46-9.14zM368.47 440.66a110.1 110.1 0 0 0 38.08-7.58l7.89 19.06a130.3 130.3 0 0 1-46 9.14zM410.63 431.36a110.2 110.2 0 0 0 32.3-21.53l14.54 14.53a131.6 131.6 0 0 1-38.93 26.1zM446 406.65a111 111 0 0 0 21.52-32.28l19.15 7.93a131.9 131.9 0 0 1-26.09 38.94zM469.26 370.29a110.9 110.9 0 0 0 7.59-38.06h20.67a130.6 130.6 0 0 1-9.14 46z"/></g><path fill="#f6be5f" d="M366.25 385a54.93 54.93 0 1 1 54.93-55 55.08 55.08 0 0 1-54.93 55"/><path fill="#b81930" d="M400.3 298.65a46.6 46.6 0 0 0-16.23-11.43c-.89-.37-1.8-.68-2.72-1a46 46 0 0 0-15-2.55h-.21a46 46 0 0 0-15 2.55c-.92.32-1.83.63-2.71 1a46.2 46.2 0 0 0-16.24 11.43 46.16 46.16 0 0 0 2.1 64.89 46 46 0 0 0 31.82 12.8h.21a46 46 0 0 0 31.82-12.8 46.16 46.16 0 0 0 2.1-64.89z"/><path fill="#f6be5f" d="M383.29 290a43.7 43.7 0 0 1 13.61 9.19l-.8 1.67c-2.55-.43-9.22-1.52-16.23-2.34a45 45 0 0 0 3.42-8.52M366.26 314.84c-11.47 0-29 3.2-34.62 4.29.41-10.19 4.08-14.7 4.7-15.37 2.53-.43 20-3.38 29.92-3.38s27.38 2.95 29.91 3.38c.62.67 4.29 5.18 4.7 15.37-5.6-1.13-23.15-4.29-34.61-4.29"/><path fill="#f6be5f" d="M401.32 322.13c.75 2 2.08 5.91 2.08 7.86s-1.33 5.84-2.08 7.84c-3.64.72-23.06 4.43-35.06 4.43s-31.42-3.71-35.06-4.43c-.75-2-2.09-5.91-2.09-7.84s1.34-5.86 2.09-7.86c3.64-.72 23.05-4.42 35.06-4.42s31.41 3.7 35.06 4.42M366.15 286.53h.21a43.1 43.1 0 0 1 14.25 2.47 43 43 0 0 1-3.82 9.18c-3.77-.39-7.47-.66-10.53-.66s-6.76.27-10.53.66a43 43 0 0 1-3.82-9.18 43.1 43.1 0 0 1 14.24-2.47M349.22 290a45 45 0 0 0 3.42 8.52c-7 .82-13.68 1.91-16.23 2.34l-.8-1.67a43.5 43.5 0 0 1 13.61-9.19"/><path fill="#f6be5f" d="M333.54 358.6a43.32 43.32 0 0 1 0-57.16l.37.77c-1.54 1.91-5.11 7.51-5.18 18.37-.46 1.19-2.47 6.48-2.47 9.41s2 8.17 2.47 9.38c0 10.93 3.64 16.55 5.18 18.47zM335.62 360.88l.8-1.68c2.55.44 9.22 1.52 16.22 2.34a45.4 45.4 0 0 0-3.42 8.51 43.4 43.4 0 0 1-13.6-9.17M366.36 373.51h-.21a43 43 0 0 1-14.24-2.46 42.6 42.6 0 0 1 3.81-9.17c3.77.39 7.48.66 10.54.66s6.76-.27 10.53-.66a42.6 42.6 0 0 1 3.81 9.17 43.1 43.1 0 0 1-14.24 2.46M383.29 370.05a46 46 0 0 0-3.41-8.51c7-.82 13.66-1.91 16.22-2.34l.79 1.67a43.3 43.3 0 0 1-13.6 9.18"/><path fill="#f6be5f" d="M396.17 356.29c-2.54.42-20 3.38-29.91 3.38s-27.38-3-29.92-3.38c-.62-.69-4.32-5.21-4.7-15.45 5.59 1.07 23.15 4.27 34.62 4.27s29-3.2 34.62-4.27c-.39 10.24-4.09 14.76-4.71 15.45"/><path fill="#f6be5f" d="M398.61 357.83c1.54-1.91 5.13-7.53 5.18-18.47.48-1.2 2.47-6.47 2.47-9.38s-2-8.22-2.47-9.4c-.07-10.86-3.64-16.46-5.18-18.37l.37-.77a43.31 43.31 0 0 1 0 57.16z"/></svg>