<svg xmlns="http://www.w3.org/2000/svg" viewBox="0 0 659.69 700"><path fill="#00753b" d="M287.63 120.26a233.6 233.6 0 0 0-126.48 67.9h125.34a54.67 54.67 0 0 1 1.14-67.9m211 67.89a233.83 233.83 0 0 0-126.53-67.89 54.65 54.65 0 0 1 1.14 67.89zm161.1 43.33-109.83 38.8a234.2 234.2 0 0 0-51.13-82v197c0 141.66-136.35 190.94-163.54 198.23A234.26 234.26 0 0 0 546 439.61c36 19.39 71.66 38.64 102.87 55.52C593.65 616.08 471.49 700 329.85 700S66 616 10.82 495.06C38.66 480 75.21 460.18 113.66 439.4a234.05 234.05 0 0 0 210.77 144.13C297.24 576.24 161 527 161 385.3V188.36a234.2 234.2 0 0 0-51.13 82L0 231.55C48.62 96.46 178.05 0 329.85 0S611 96.39 659.69 231.48z"/><path fill="#fff" d="M520.76 176.54a11.7 11.7 0 0 1 3.09 2.6 16.6 16.6 0 0 1 2.39 3.63l35.16-30s-11.82 62.16-11.82 62l4.36 6.71 56.62-37.09a40 40 0 0 1-2.79-3.64 35 35 0 0 1-2.23-4.42l-38.66 26.76c.18.06 12.07-63.24 12-63.3l-7.33-8-50.79 44.79m-25.15-61.39 18.74-10.91L508.9 125zm11.89 15.32c-1.11 4-3.36 11.57-5.48 17.86a61 61 0 0 1 6.41 4.62 29.5 29.5 0 0 1 5.67 6.22l15.56-64a34 34 0 0 1-2.91-1.81 33 33 0 0 1-2.55-2.25l-56.93 32.35a11.7 11.7 0 0 1 3.83 1.74c1.18.83 2.69 2.11 3.76 3 4.95-3.72 9.89-6.58 15.7-10.36zM362 87.91c1.14.1 2.46.1 3.64.24s2.37.48 3.56.76l5.55-37.59s28.16 45.07 28 44.93l7.34 2.32 16-54.68a21.4 21.4 0 0 1-3.5-.77 34 34 0 0 1-3.42-1.32l-10.35 36.9s-30-45.73-30.17-45.87l-8.89-1.25zm-56.17-53.27c10.36-1.32 14.59-1.25 15.1 8.48.46 8.83-3.95 13.65-13.51 13.51zm-9.1 53.57A33.8 33.8 0 0 1 303.4 87a40 40 0 0 1 6.38-.14l-2-26.52.39-.07c2.44 3.14 4.88 6.51 6.34 8.76l11.82 17.2a75 75 0 0 1 8.76-.28 80 80 0 0 1 9.31.7L339.41 81c-5.87-7.63-12.14-15.74-17.88-23.31 8.32-2.16 13.66-7.34 13.19-15.67-.58-11.19-9.63-13.31-23-12.33l-21.18 1.9zm-74.56-40.54 17.09 54.24 32.65-9.38a11.8 11.8 0 0 1-1.11-3.34 12.6 12.6 0 0 1-.33-3.86c-5.2 2-11 4.14-19.85 6.92l-6.06-20 9-2.44a76 76 0 0 1 12-2.6 21 21 0 0 1-1.32-3.51 24 24 0 0 1-.39-3.62c-3.16 1.18-8 3-11.94 4.13l-9.1 2.44-5.31-17.59c9-2.78 17.53-4.48 22.87-4.83a16 16 0 0 1-1.26-3.48 15.2 15.2 0 0 1-.46-3.65zm-42.28 52.5c8-5.52 14.79-5.45 19.39 2.67a11 11 0 0 1-3.69 15l-4 2.23zM168 79.67a51 51 0 0 1 4.42-3c5.22-2.93 10.09-1.88 13.14 3.44a11.07 11.07 0 0 1 1 9.66c-1.44 3.71-4.94 5.24-8.31 7.19zm15.37 50.88 16.81-10.29c9.32-5.32 16.84-14.63 11-24.85-5.29-9.24-14.11-5.87-20.24-3.09l-.4-.63c6.2-4.68 10.15-12.23 6.13-19.25-4.94-8.68-14.44-7.47-22.36-2.92l-21.24 13zm252.74-23.23a51 51 0 0 1 6.34 2.44 40 40 0 0 1 5.66 3.16L473 62.16a31 31 0 0 1-5.74-2.16 60 60 0 0 1-7.12-4.06zm-281.42 46.33a62 62 0 0 1 4.7-4.55 66 66 0 0 1 5.48-4.06l-36.37-43.61a33 33 0 0 1-4.34 4.41 58 58 0 0 1-6.62 4.83zm-49.59 67.62a27.2 27.2 0 0 1 3-5.67 26.7 26.7 0 0 1 4.61-5.6l-25-18.62c3-4.41 5.76-9.17 8.91-13.51s7-8.76 10.29-12.94l24.22 20a46.5 46.5 0 0 1 4.55-6.39 50 50 0 0 1 4.81-4.48l-51.32-44.3a41 41 0 0 1-4.44 6.1 51 51 0 0 1-6.2 6.3l22.18 17.71c-3 4.39-6.52 9.59-9.71 13.91s-6.27 8.69-9.61 12.82l-23.15-16.84a52 52 0 0 1-3.63 6.24 83 83 0 0 1-5.34 6.85zM316.59 636.38v-.7c5.41-.42 10.75-2.88 12.72-7.64a10.8 10.8 0 0 0 .79-4.27c0-10.36-6.59-12.59-14.63-13.15L297.64 609l-2.23 19-4.23 35.64 20.07 1.74c14.3.7 20.64-3.71 20.57-14.9-.07-8.09-6.46-12.64-15.23-14.1m-9.32-22c1.54.07 2.51.13 3.37.2 5.34.58 8.31 3.44 8.45 9.53a8.76 8.76 0 0 1-.72 3.92 10.8 10.8 0 0 1-3.37 4.07c-2.79 2.32-5.88 1.91-9.32 1.61l.47-5.67zm2.4 46-6.09-.35 1.72-21.64c8.64 0 14.91 3.15 14.65 12-.21 7.32-4.48 10.07-10.28 10zM462.43 628c-6.31-4.27-12.65-8.55-18.71-13.14 6.2-4.42 9-10.94 5.92-18.21-2.11-5-4.95-7.08-10.08-7.5-3.76-.34-9 1.33-13.4 3.23L410.79 598l11 30.09 8 21.78c1.71-.84 3.5-1.62 5.54-2.39a65 65 0 0 1 6.6-1.95l-6.6-17.53-2.57-6.71.58-.21c2.86 2.09 6.34 4.62 8.27 6.15l1 .77 14.26 11.29c2.18-1.07 4.34-2.47 6.59-3.37s4.49-2.12 6.74-2.88l-4.69-3c-1.01-.58-2.01-1.3-3.08-2.04m-30.86-9.87-7.91-21c4.48-1.9 9.31-3.65 13 2a21.7 21.7 0 0 1 2 3.58c3.2 7.64 1.02 12.88-7.09 15.46zM398.25 628l-5.41-24.92a9.1 9.1 0 0 1-3 1 11.3 11.3 0 0 1-3.23.49l5.3 23.43.21 1c1.26 4.61 2.11 12.88 1.18 16.6-1.64 7.34-5.54 10.56-12.93 11.75a12.4 12.4 0 0 1-9.56-2c-3.3-2.3-4.35-4.62-5.67-8.41-1.39-4-2.25-10.49-3-14.84l-.4-4.13-2-19a42.6 42.6 0 0 1-5.62 1 46 46 0 0 1-6.06.07l2 17.9 1.79 15.84a40.2 40.2 0 0 0 2.83 9.51c4.62 9.88 15.44 11.2 25 9.6 5.27-.79 10.94-2.75 14.7-6.53 7.34-7 6.6-16 4.69-24.29zM169.42 555.45l-18.28-15.67-37.55 40.52 17.28 15.63c12.35 10.77 30.49 11.75 41.1-2.88 8.45-11.61 9.03-29.19-2.55-37.6m-7.81 29.26c-11.28 14.91-22.08 12.47-30.39 5.18l-5.09-4.69 30.28-34.5 6.67 5.66c8.49 7.43 7.71 16.25-1.47 28.35M512.59 579.19c-1.6 1.25-3.3 2.39-5 3.5l11.8 14.56c-.53 1.46-2.83 3.44-7.24 6.5-10 6.94-20.67 4.2-28.45-7.34-7.53-11.21-9.17-24.86 1.86-32.41a16.77 16.77 0 0 1 16.67-2l.93-.63a29.2 29.2 0 0 1-2.69-7.9c-6.95.56-12.08 2.72-17.77 6.65-15.23 10.49-21.36 27-10.21 43.53 10.56 15.61 28 14 41.88 4.42 5.81-4 12.29-9.66 16.56-15.75l-14.12-17.16c-1.39 1.38-2.71 2.77-4.22 4.03M118 542.5a21.5 21.5 0 0 1 2.9-1.88 72 72 0 0 1-7.18-7.85l-5.22-6.5 13.54-10.78a162 162 0 0 1 11.33 15.6 14.3 14.3 0 0 1 2.39-2.5 11.6 11.6 0 0 1 2.55-1.91l-19.11-23.45L75 536.76l22.36 27.45a22 22 0 0 1 2.37-2.53 26.6 26.6 0 0 1 3.25-2.16 186 186 0 0 1-15.25-16.74l16.55-13.15 5.16 6.51c2.25 2.88 4.55 6.43 6.2 9a22.4 22.4 0 0 1 2.36-2.64M539.69 503.86a35 35 0 0 1-7 8.82l17.48 14.91c-2.43 3.23-4.87 6.45-7.52 9.59s-4.48 4.9-7.38 7.78l-16.87-15.81a36 36 0 0 1-3.44 4.41 36.6 36.6 0 0 1-4.48 3.9L550.25 576c1.26-1.54 2.58-3.07 4-4.55a57 57 0 0 1 4.62-4.19L540 549.3c2.65-3.09 4.16-5.39 6.87-8.48s5.42-6.15 8.25-9.1l20 16.74a46 46 0 0 1 3.76-5.24 43 43 0 0 1 3.84-4.55zM207.27 581a38.4 38.4 0 0 1-5.21-3.56l-26.79 48.44c1.39.56 3.43 1.39 5.15 2.16a9.5 9.5 0 0 1 1.51.77c1.79 1 4 2.53 5.73 3.64L190 628l23.29-44.58a34.6 34.6 0 0 1-6.02-2.42M270.29 604.1l-5.76 23.9-3.09 13c-2.05-3.93-4.23-8.34-6.48-13-5.2-10.77-10.68-23-15-33l-7.24-2.86L218.83 628l-6.09 15.7a36 36 0 0 1 3.7 1 26 26 0 0 1 2.83 1.4l7-18.07 7-17.9L239 622.3c1 1.88 1.9 3.86 2.9 5.74 5 9.87 10 19.87 15.3 29.81l7.85 1.7 7-31.51 5-22.39a28 28 0 0 1-3.7-.65c-.97-.27-2.16-.55-3.06-.9M454.47 327.1c4.22-5.59 6.66-11.54 6.78-16.3h-17.53c0 2.95-3.32 5.25-7.41 5.25H399c-4.09 0-7.38-2.3-7.38-5.39h-17.91c.14 4.77 2.58 10.78 6.94 16.44 7.5 9.73 20.5 18.56 37 18.56s29.41-8.83 36.82-18.56m-50.27 6.95a3.84 3.84 0 0 1-2.26-6.94 3.6 3.6 0 0 1 2.26-.77 3.76 3.76 0 0 1 2.29.77 3.9 3.9 0 0 1 1.54 3.08 3.86 3.86 0 0 1-3.83 3.86m14.76 0a3.86 3.86 0 0 1-3.83-3.86 3.9 3.9 0 0 1 1.54-3.08 3.78 3.78 0 0 1 2.29-.77 3.6 3.6 0 0 1 2.26.77 3.84 3.84 0 0 1-2.26 6.94m14.72 0a3.86 3.86 0 0 1-3.83-3.86 3.94 3.94 0 0 1 1.58-3.08 3.9 3.9 0 0 1 2.25-.77 3.8 3.8 0 0 1 2.3.77 3.94 3.94 0 0 1 1.58 3.08 3.86 3.86 0 0 1-3.88 3.86M377.21 281.62v-19.81l-15.18 6.71 13 5.66v6.95zM392.12 292.25a2.21 2.21 0 0 0 2.18-2.25 2.33 2.33 0 0 0-1.6-2.18l-.32-.07-32.72-7.2a2.1 2.1 0 0 0-.72-.14 2.2 2.2 0 0 0-2.18 2.23 2.25 2.25 0 0 0 2 2.25l32.46 7.2a2.5 2.5 0 0 0 .9.16M376.89 230.65c15.7 5.31 19.57 5.53 22.61 1.35l-.58-6.32a6.44 6.44 0 0 0-4.29.77c-1.07.58-.79 1-.79-.49s2.44-2.09 9.64-2.37a36.4 36.4 0 0 1 13.58 2.51v1.76l3.69-1.41v-12.94s-2.44-.69-7.59-1.55c-9.68-1.68-13.4 1.2-17.88 3.78s-3.41 7.5-3.41 10.71 2.69 2.6 5.12 4.34c2 1.35-.25 1.55-4.54-.21a4.61 4.61 0 0 1-3-5.18 22.6 22.6 0 0 1-6-.48c-2.72-.77-16.3-4.7-21.11.48-4.22 4.55-2.89 7.29-2.89 9.59.14-.07 2.39-9.38 17.44-4.34M396.07 305.7a2.23 2.23 0 0 0-2.23-2.26h-26.59a2.24 2.24 0 0 0-2.25 2.26 2.21 2.21 0 0 0 2.25 2.16h26.59a2.19 2.19 0 0 0 2.23-2.16M476.37 280.43a2.3 2.3 0 0 0-.73.14l-32.78 7.2a.42.42 0 0 1-.28.07A2.25 2.25 0 0 0 441 290a2.2 2.2 0 0 0 2.18 2.23 2.9 2.9 0 0 0 .86-.14l32.46-7.2a2.25 2.25 0 0 0 2.05-2.25 2.21 2.21 0 0 0-2.18-2.21"/><path fill="#fff" d="m469.1 309.69-.59.07c-4.08 0-7.38 4.69-7.38 10.49a15.6 15.6 0 0 0 1.19 6.23 14.4 14.4 0 0 0-3.3.62c-7.52 2.47-5.95 11-5.95 11-7.31-1-16 5.32-16 5.32a26.2 26.2 0 0 1 15.42 2.72s1.93-4.32 5-5.67c0 0-3.16-7.06 2.32-7.76 1.32-.13.07 0 .07 0 2-.13 1.9.63 1.9.63-3.9.56-3.29 3.93-3.29 3.93a4.34 4.34 0 0 0 4.29 3.41 4.25 4.25 0 0 0 2.3-.7c3.55-2.92 3-7.68 2.37-11.19-.12-.56-.19-1.11-.33-1.69-.72-3.35-1.71-7.55-1.32-9.59a21.8 21.8 0 0 0 .32-4.76s.08-1.68 1.14-1.4c0 0-.86 2.6 1.84 2.88a2.22 2.22 0 0 0 2.25-2.25 2.28 2.28 0 0 0-2.25-2.29M393.91 300.73v-5.25l-3.83-.84v2.79h-4.62v-3.86l-3.7-.76v4.62h-4.55v-5.67l-3.29-.69v6.36h-3.83l-1.47-7.55-4.27-.92 2.84 11.77zM461.39 280.85v-22.06l-15.12 6.8 13.01 5.67v10.08z"/><path fill="#fff" d="M390.27 242.7s.74.07.6.56c-13 22.54 3.37 42.56 3.37 42.56 3.55-7.29 10.68-12.82 23.36-12.47a31.05 31.05 0 0 1 12.26 2.53 59.4 59.4 0 0 1 15.51 8.48s-8.6-17.79-4.56-35.44c5.07-22.2 17-29 22.48-33.25a1 1 0 0 0-.51-1.88 1.2 1.2 0 0 0-.53.07c-28.7 11.06-73.1 27.15-73.1 27.15s-1.39.92 1.12 1.69M441.4 295.48v5.25h26.72l2.83-11.77-4.29.92-1.44 7.55h-3.83v-6.36l-3.3.69v5.67h-4.62v-4.62l-3.62.76v3.86h-4.62v-2.79zM419.17 210.08c1.84 0 3.37-.91 3.37-2.16s-1.53-2.12-3.37-2.12-3.29.91-3.29 2.12 1.44 2.16 3.29 2.16"/><path fill="#fff" d="M417.06 276.09v37.18h3.69v-37c-1.07-.07-2.11-.14-3.23-.14zM439.21 305.7a2.21 2.21 0 0 0 2.25 2.16h26.59a2.21 2.21 0 0 0 2.26-2.16 2.25 2.25 0 0 0-2.26-2.26h-26.59a2.24 2.24 0 0 0-2.25 2.26M242.1 520.67l22.09-15.26v16.93l16.44-9.45v20.67l39.24-28.15h19.93l39.24 28.15v-20.67l16.44 9.45v-16.93l22.34 15.14c58.26-47.25 63.06-111.15 63.06-117.26-25.14-13.49-151.06-81.55-151.06-81.55S200 391.87 178.77 403.41c0 5.96 5.09 69.87 63.33 117.26"/><path fill="#00753b" d="M298.06 445.06h63.57v57.54H344.5v-29.25c-.14-7.64-7.06-13.87-14.65-13.87-7.78 0-14.59 6.3-14.73 13.94v29.18h-17.06zM264.2 428.07h31.14v14.19H264.2zM295.34 404.55v20.78H264.2v-20.78h7.06v7.89h4.83v-7.89h2.55v-6.53H258.4l7.19-6.15-7.19-6.09h22.5v18.77h2.57v7.89h4.81v-7.89zM264.2 488.32h31.14v14.28H264.2zM264.2 445.06h31.14v40.54H264.2zM364.28 428.07h31.14v14.19h-31.14zM395.49 404.55v20.78h-31.21v-20.78h7.13v7.89h4.74v-7.89h2.57v-6.53h-20.24l7.24-6.15-7.24-6.09h22.57v18.77h2.55v7.89h4.76v-7.89zM364.28 488.32h31.14v14.28h-31.14zM364.28 445.06h31.14v40.54h-31.14zM361.63 435.2v7.05h-63.57v-14.18h10.54v7.13h7.38v-7.13h9.85v7.13h7.96v-7.13h9.92v7.13h7.38v-7.13h10.54zM267.03 505.41h48.49l-32.05 22.39v-19.95l-16.44 9.52zM344.1 505.41h48.49v11.96l-16.38-9.52v19.95zM314.27 367.37h7.05v7.92h4.83v-7.92h2.58v-6.52h-20.27l7.2-6.16-7.2-6.08h22.5v18.76h2.58v7.92h4.81v-7.92h7.05v29.26h-31.13zM314.27 399.37h31.14v25.96h-31.14z"/><path fill="#00753b" d="M341.78 473.35v29.25h-23.94v-29.18c.07-6 5.6-11.19 12-11.19s11.86 5.17 11.93 11.12"/><g fill="#fff"><path d="M319.16 544.61v5.18h21.3v-5.18zm0-11.05v5.17h21.3v-5.17zm0-11.08v5.11h21.3v-5.11zm0-11.12v5.18h21.3v-5.18zM333.86 468v-2a9.4 9.4 0 0 0-3-.87V468zM323.58 470.33h-2.2a7.75 7.75 0 0 0-.77 3h3zM320.6 475.64h2.97v3.02h-2.97zM320.6 491.55h2.97v3h-2.97zM320.6 486.23h2.97v3h-2.97zM320.6 480.99h2.97v3h-2.97zM328.73 468v-2.94a9.2 9.2 0 0 0-3 .88V468zM330.89 491.55h2.97v3h-2.97zM330.89 480.99h2.97v3h-2.97zM320.6 496.87h2.97v3.02h-2.97zM325.76 470.33h2.97v3.02h-2.97zM325.76 475.64h2.97v3.02h-2.97zM330.89 486.23h2.97v3h-2.97zM330.89 475.64h2.97v3.02h-2.97zM336.05 470.33v3h3a7.6 7.6 0 0 0-.74-3zM330.89 470.33h2.97v3.02h-2.97zM325.76 480.99h2.97v3h-2.97zM336.05 496.87h2.97v3.02h-2.97zM330.89 496.87h2.97v3.02h-2.97zM325.76 496.87h2.97v3.02h-2.97zM336.05 491.55h2.97v3h-2.97zM336.05 480.99h2.97v3h-2.97zM336.05 486.23h2.97v3h-2.97zM325.76 491.55h2.97v3h-2.97zM336.05 475.64h2.97v3.02h-2.97zM325.76 486.23h2.97v3h-2.97zM276.53 458.51v16.79H283v-16.79a3.24 3.24 0 0 0-6.48 0M376.68 458.51v16.79h6.41v-16.79a3.21 3.21 0 0 0-6.41 0M241.91 343.08c-4 2.72-10.22 1.6-10.22 1.6a16.55 16.55 0 0 0 14.49 1.12c5.76-2.3 8.52-8.11 8.52-8.11h-8s-2.49 3.83-4.79 5.39"/><path d="M237.55 334.4s-1.12 2.36-2 3.92-2.3 3.72-2.3 3.72a11.5 11.5 0 0 0 6-.73 15.2 15.2 0 0 0 4.62-3.9 17 17 0 0 1-3.29-1 15 15 0 0 1-3.03-2.01M232.92 321a44.3 44.3 0 0 1-8.64-5.94 56.63 56.63 0 0 1-18.39-30 58.6 58.6 0 0 1 5.6-41.17s-2.9-.55-4.74-1c-1.53-.42-3.71-1.26-3.71-1.26s-.51.84-1.91 2.72c3.05 2.46 3.62 6.08 2.19 9.66a55.4 55.4 0 0 0-3.11 32.34c1.92 9.52 4.43 15 10.35 22.69a53.6 53.6 0 0 0 4.83 6.08q.78.84 1.44 1.68c2.19 2.6 3.58 6-.51 10 0 0 1.19 1.63 2 2.61a8.06 8.06 0 0 1 4.67 2 4.93 4.93 0 0 1 1.65 4.62 7.47 7.47 0 0 0-6.59-4.07 7.2 7.2 0 0 0-4.16 13c11.75 8.2 19-6.64 22.31-14.14s-3.28-9.82-3.28-9.82"/><path d="M208.19 315.08a5.54 5.54 0 0 0 .14-4.48c-6.2-8-8.84-13.8-10.89-23.74a57.6 57.6 0 0 1-.25-21.78 6 6 0 0 1 .32-1.39c-.39-2.37-1.11-5.11-2.71-6.78-.52 1.53-5.81 17.28-3.77 30.09 2.26 13.59 11.82 24.64 15.12 28.08l1.12 1.18a5.8 5.8 0 0 0 .92-1.18M214.26 325l.53-.63c.14-.14.28-.21.4-.35s.32-.49.46-.7a3.5 3.5 0 0 0 .46-1.83 2.2 2.2 0 0 0-.14-1 12 12 0 0 0-1.11-1.74c-.26-.42-.61-.76-.86-1.14l-.39-.41-1-1.12a12 12 0 0 0-.91-1c-.35-.42-.67-.84-1.07-1.26a4.5 4.5 0 0 1-.25 1.26 7.2 7.2 0 0 1-1.47 2.51c-1.64 1.83-2.22 2.8-2.29 4v.28a4.76 4.76 0 0 0 4.73 4.41 4.82 4.82 0 0 0 2.91-1.28M204 238.77c3.11-4.75 4-6.64 5.29-13.58 2-10.56-.67-15.46-.67-15.46-3.69 1.46-15.24 21-15.24 21 .05.54 4.71 5.37 10.62 8.04M223.71 244.16l22.15 58.31 1.99-3.14-20.92-55.45zM216.18 244.37l24.8 65.74 2.04-3.16-23.54-62.58zM198.91 258.23a52 52 0 0 1 1.83-5.31c1-2.33.72-4.42-.72-5.95a5.52 5.52 0 0 0-3.51-1.14 4.12 4.12 0 0 0-4 4.21 2.4 2.4 0 0 0 .07.69c.85 3.44 4 2.32 6.33 7.5M291.83 244.44l-36.66 70.64L245 334.54h19s3-8.27 7-19.46c8-22.48 20.51-56.92 22.62-61.08a7.74 7.74 0 0 0-1.79-9.56"/><path d="M293 234.78c-6.41-2.86-10.75-.14-11.82 2.46a6.66 6.66 0 0 0 0 4.83 6.9 6.9 0 0 1 2.51-1.76c1.65-.7 5-.56 7.73.83a10.43 10.43 0 0 1 4.88 5.06 19 19 0 0 1 .86 2.93 6.4 6.4 0 0 0 3.55-3.3c1.11-2.57.18-7.4-7.71-11.05"/><path d="M289.93 243.19s-2.83-1.12-4.62-.84-4.16 2.58-4.16 2.58L274 255.29l1.86 5-34.76 54.73-.74 1.19-.44-1.19-2.44-6.5-4.58 6.5-2 2.81s5.74 1.4 7.2 4.39c1.65 3.3 2.76 7.22.93 9.59 1.18.86 3.36 2.4 3.36 2.4l10-19.19z"/><path d="m231.41 243.12 19.46 51.38 2.05-3.15-18.39-48.79zM272.84 260.04l-10.08-26.86-2.9.98 10.94 29.04z"/><path d="M206.41 239.54s8.12 4.06 27.72 0C253 235.62 271 223.59 285.84 227a5.88 5.88 0 0 1 10.83 1.39c.25.9-.33 1.11-.33 1.11a4.7 4.7 0 0 0-4.43-3.5 4.53 4.53 0 0 0-4.49 4.48 2.6 2.6 0 0 0 .14.7c8.78 1 11.94 4.75 11.94 4.75 6.13-6.36 2.58-16.29-10.82-20.08s-23.83 1.62-43.68 2.18c-19.39.49-33-6.1-33-6.1s2.72 16.07-5.59 27.61"/><path d="m252.92 236.75 12.93 34.23 2.04-3.16-12.07-32.13zM238.68 241.51l17.14 45.29 1.97-3.16-16.09-42.98zM245.74 239.33l14.98 39.68 2.04-3.13-14.12-37.52z"/><path d="M356.5 199.51a51.94 51.94 0 0 1-53.24 0H172.32V385.3c0 147.19 155.81 187.87 157.53 187.87s157.52-40.68 157.52-187.87V199.51zM329.85 103a51.94 51.94 0 0 1 34.36 90.86h128.85V385.3c0 150.9-159.2 193.61-163.22 193.61S166.63 536.2 166.63 385.3V193.84h128.85A51.93 51.93 0 0 1 329.85 103"/></g><path fill="#00753b" d="M376.35 154.9a46.48 46.48 0 1 1-46.44-46.46 46.44 46.44 0 0 1 46.44 46.46"/><path fill="#fff" d="M373.52 154.9a43.8 43.8 0 0 0-8.63-26.1 3.2 3.2 0 0 0-.68.7c4 5.6 10.57 21.15 7.32 38.57a43.2 43.2 0 0 0 1.99-13.17M363.17 126.64A43.35 43.35 0 0 0 346 114.38c-.26 2.46-.26 5.18-.54 7.78-.46 3.9-1.11 8.45-2.43 11.68 6.47.77 11.93 2.25 15.18 4.21.73-3.51 2.17-9.18 4.96-11.41M343.36 113.34a44.6 44.6 0 0 0-13.44-2 44.05 44.05 0 0 0-17.75 3.66c.19 2 3.35 10.08 9.5 18.83a91.6 91.6 0 0 1 18.39-.28c2.51-4.89 2.65-14.56 3.3-20.15v-.07zM309.6 116.26a44.65 44.65 0 0 0-14 11.64 44.8 44.8 0 0 1 9.05 10.1 61 61 0 0 1 13.84-3.72c-4.49-6.66-8.03-13.88-8.89-18.02M294 130.13a43.64 43.64 0 0 0-.91 48.16c-9.05-19.53-2.18-41.64 1-48.09zM317.84 196.91a45.9 45.9 0 0 0 12.07 1.69 44.3 44.3 0 0 0 11.76-1.6 15.2 15.2 0 0 0-1.68-7.2 96.2 96.2 0 0 1-20.64-.42c-1.9 3.12-2.23 5.3-1.51 7.53M344.5 196.07a43 43 0 0 0 16.95-11 12 12 0 0 0-1.32-1.12c-4.42 2.86-10.5 4.63-17.17 5.53a18.6 18.6 0 0 1 1.54 6.59M357.48 140.93c-7.13-5.21-35.62-7.71-52.78.14-1.05.48-2.3 5.24-3.23 11.46 13.61-4.55 47.83-5.31 59.44-1.25-.65-5.11-1.83-9.17-3.43-10.35M361.59 169.76c-16.31 6.71-46.33 5.67-61 .77.35 4.55 1.21 8.41 2.83 10.5 5 6.36 40.59 9.93 55 .55 1.77-1.11 2.75-5.87 3.17-11.82"/><path fill="#fff" d="M300.49 167.44c14 5.25 45.77 6.3 61.21-.83a92 92 0 0 0-.39-12.12c-8.38-4.42-47.63-4-60.23 1.2a97 97 0 0 0-.59 11.75"/><path fill="#fff" d="M363.21 182.56c11.82-20.78 4.44-42.22-.44-50.11a50 50 0 0 0-2.11 7.89c4.48 7.58 5.48 32.7 1.25 41.24a15 15 0 0 1 1.3.98M298.38 182.14c.46-.28 1-.56 1.33-.77l.51-.2c-4.67-9.45-2.12-35.56 2.11-41.59a49.2 49.2 0 0 0-6.13-7.41c-3.44 7.62-9.89 31.14 2.18 49.97M301.93 183.53c-1.18.51-2.3 1.21-3.48 1.7a43.8 43.8 0 0 0 16.28 10.63 11.44 11.44 0 0 1 1.58-7c-6.53-1.12-11.87-2.93-14.38-5.33"/><path fill="#00753b" d="M12.79 390.33c6.39-.14 12.66-.2 19-.2s12.72.06 19.06.2v-2.46c-5.48-.21-9.24-1.6-10.75-3.29-3-3.35-3-11.4-3-24.92v-13.23c0-6.57.14-12.45.67-17.84-6 .14-11.61.28-16.83.28-2.84 0-5.53 0-8.11-.14v2.51c6.81.35 10.75 2.11 11.94 5.18 1.39 3.71 1.51 11.42 1.51 23V368c0 8.55-.26 13.94-2.51 16.59-1.62 2-5.46 3.29-10.94 3.29v2.46M81.88 356c8.56-3.49 12.86-8.53 12.86-14.64 0-8.24-7.2-14.14-19.41-14.14s-19.85 6.39-19.85 15.7c0 6.5 4 11.54 12.53 16.72-9.56 4.34-14.12 9.38-14.12 16.6 0 9.31 7.64 15.4 20.93 15.4 13.7 0 21.82-7 21.82-17 0-6.56-4.94-12.37-14.76-18.68m-11.29 5.27 5.53 3.55c5.41 3.5 8.52 8.54 8.52 13.58 0 6.16-3.58 10.22-8.06 10.22-6 0-11.08-5.67-11.08-13.72a20.08 20.08 0 0 1 5.09-13.64zm9.29-6.6-5.6-3.85c-5-3.56-7.59-7.55-7.59-11.47 0-5 3.62-9 8-9 4.88 0 8.57 4.9 8.57 12.12a25.35 25.35 0 0 1-3.38 12.19zM568.32 391.59Q578 373.41 581.58 367l20.59-36.83-1.07-1.46c-7.12.21-14.11.28-20.89.28s-13.4-.07-19.81-.28c-1.18 5.25-2.83 11.68-4.88 19.53l2.12.84c1.65-3.58 3.16-6.23 5.15-7.92 2.16-1.88 5.93-2.09 11.47-2.09h19.07l-31.79 52.5h6.78M603.94 364.21a23.77 23.77 0 0 1 11.82-3c9.75 0 15.11 5.24 15.11 14.14 0 7.76-4 13.07-9.63 13.07-5 0-8.38-3.64-8.38-9a15.6 15.6 0 0 1 .53-3.69 8.6 8.6 0 0 0-5.74-2.12c-4.22 0-6.73 2.46-6.73 6.45 0 6.72 6.52 11.48 17.67 11.48 14.26 0 23.76-8.76 23.76-20.78 0-10.94-8.71-19-23.76-19a39.3 39.3 0 0 0-10.42 1.46l1.92-14.22c2.23-.14 4.42-.14 6.71-.14 6.41 0 12.94.21 19.53.56l4-15.05-2-.63c-2.44 4.69-4.8 5-9.49 5h-21.4l-4.29 35.13.79.35"/></svg>