<svg xmlns="http://www.w3.org/2000/svg" viewBox="0 0 556.06 700"><g fill-rule="evenodd"><path fill="#ffcc02" d="M173.16 46.58a113 113 0 0 0 13.43-4.42C220.91 29.61 250.33 17.55 281.8 0c33.2 16.57 65.9 33.53 102.27 42.26 16 3.92 35.11 4.9 43.54 5.1 53.44.69 75.89.49 128.45-5-10.1 52.06-16.18 80-23.34 133.35-3.43 27.85-2.25 71.48-.88 99.43 2.84 59.51 3.63 119 1.47 178.65-2 22.65-3.14 42.65-9.9 60.79-8.24 22.26-22.75 41.58-42.75 60.7-57.07 54.12-126.3 88.44-195.52 124.72-68-29.22-161.69-80.21-208.76-132.47-23.92-26.77-31.38-39.22-34.9-58.34-2-10.69-3.53-23-5.1-41-3.63-43.24-2.26-121.29-4-181.3 0-11.76-.59-32.65-.49-44.32C30.1 167.57 20.2 117.47 0 46.18c58 5.3 84.23 7.26 142.37 4.32 5.63-.39 25.4-2.85 30.79-3.92"/><path fill="#000001" d="M27.8 72a703 703 0 0 0 128.25 3.92c8.14-.49 18.83-1.08 23.44-2.25a171 171 0 0 0 16.66-5.3c30.6-11.27 59.62-23.63 85.21-38.34 31 16.18 62.17 31.68 96 39.62a138 138 0 0 0 30.88 3.72 981 981 0 0 0 120-4.7c-10 44.61-16.47 85.6-20.79 120.9-3.92 32.55-2.55 61.38-1.27 87.17 2.84 59.51 2.94 118.74.78 176.59-1.57 42.75-14.31 72.17-45.49 101.88C407.07 607 344.7 637.05 284.6 670c-79-36.19-146.79-76-187.87-120.9-31.18-34.13-30.5-40-36.28-82.66-2.84-59.23-3.92-119-3.82-179.14.39-11.58-.49-23.15-.49-35 .19-56.68-10.3-116.89-28.34-180.3"/><path fill="#ffcc02" d="M306.8 265.66s-5.7 1.8-7.81 1.5a7.2 7.2 0 0 1 4.21-3.9s-4.1-.13-8.77-.15a9.7 9.7 0 0 1 1.26-4.66c-3.2.38-5.58 2.89-6.9 4.7-3.58.08-6.65.28-7.51.71-2.41 1.2-9.61 6.3-13.22 2.4 0 0-2.1 1.5-1.2 3.6s3.3 6.31 3.3 6.31 4.51-1.2 6.31.3a6 6 0 0 1 .64.83 4.9 4.9 0 0 0-2.74.37c-2.1 1.2-6.61 1.51-7.51-.6s-.9-5.1-4.21-5.1-4.8 4.8-4.8 4.8 2.7-2.4 4.8-1.2 1.81 3.61 3.91 4.51c1.5.64 3.77 1.6 4.61 3.19a2.4 2.4 0 0 0-.71.71 6.17 6.17 0 0 0-.41 5.33c-.58 0-1.1 0-1.49.08-2.2.2-6.41 3.6-8.61 5.4s-8.61 3.41-8.61 3.41c1 .6 4.21.6 4.21.6s-1.8 4.4-4.41 6.4c0 0 8.41-2.2 11.21.2 0 0-3.4 4.61-3.4 7.61 0 0 6-5 10.61-4.2 0 0-2 8.81-1.4 11 0 0 5 .8 10.21-5.21a8.58 8.58 0 0 1-2.8 6.81s10.43 1.59 12.61-12.8a8.14 8.14 0 0 1 5.81 6s5.21-3 5.21-7.6-5.61-5.61-4-12.42a5.42 5.42 0 0 0 6.81-1.9s-3.31-.6-3.61-2.1v-9a6.91 6.91 0 0 0 6.91-5.11s-4.8.6-5.11-2.7 6-2.7 6.61-8.11zm-34.71 23.64c.61-1.17 1.38-2.32 1.38-2.32 1.5 0 3.3 2.41 3.3 2.41s-2.37-.08-4.68-.09l1.87-7.43s2-3.37 3.88-1.27a2 2 0 0 1 .19 1.59s-2.8-1.14-4.07-.32zM313.4 510.19c-.5-9.06-2.56-15.6-4.94-20.26l-7.4 3.87c1.83 3.63 3.51 9 3.95 16.86.73 13.2-9.86 25.32-16.52 31.57v11.06c2.72-2 26.18-20.35 24.91-43.1"/><path fill="#ffcc02" d="M445.86 419.63v42.55s-4-10.52-32.54-10.52c-44.05 0-77.08 22.53-123.42 46-50.14 25.46-84.31 32.69-119.35 32.69-27.53 0-34-19.67-34-19.67v-53.51s8 20 34 20c35 0 68.08-15 120.91-42.35 50-25.86 87.32-36.23 113.85-36.23 35 0 40.55 21 40.55 21z"/><path fill="#ffcc02" d="M410.82 458.85v22s29.53 2.82 29.53-12.2c0-11.51-29.53-9.83-29.53-9.83z"/><path fill="#ffcc02" d="M413.82 487.2s35.54 18.52 63.57-11l-16.52-2.5 23-24.53s-16 7-30 7c0 0 5.5 33.54-40.05 31zM173.56 470.68v-18s-29-9-29 2c0 13.51 29 16 29 16"/><path fill="#ffcc02" d="m103.48 455.17 16.52-8-20-24.53s20 12.52 29.53 13 38.54-2 42.05 10c0 0-30.54-4-37.05 1.5s-4.5 19.52-4.5 19.52-14-13-26.53-11.51z"/><path d="M181.84 492.93v2.84h2.48l-2.49 18.16s-4.52-20.13-4.69-20.91l-5.48.08-3.64 20.8-3.82-17.9h2.27v-2.84l-10.39.14v2.84h2l5.49 21.39 6.82-.09c.14-.78 3.24-17.73 3.24-17.73l3.6 17.64 6.84-.09c.16-.78 4.34-21.52 4.34-21.52h2.06v-2.84l-8.56.11zM226.18 484.34c.16.56.91 3 .91 3l-1.27-1c-1.66-1.3-3.25-1.53-5.65-.8a6.8 6.8 0 0 0-4.22 3.2 7.37 7.37 0 0 0-.33 5.7c1.11 3.71 3.26 4.59 7.09 5l3 .24c3.14.21 5.21.34 5.84 2.43a3 3 0 0 1-2.27 3.83 4.27 4.27 0 0 1-5.68-3l-.12-.55s-.05-.2-.09-.39l-4.69 1.41c.25.81 2 6.65 2.25 7.46.73-.22 3.92-1.17 4.65-1.4l-.77-2.56 1.07.55a8.6 8.6 0 0 0 6.75.48c4.47-1.34 6.27-4.65 4.95-9.06-1.16-3.85-3.76-4.71-8.48-5l-2.21-.1c-2.82-.11-4.85-.19-5.5-2.33a2.7 2.7 0 0 1 .21-2.05 3.13 3.13 0 0 1 1.89-1.48 3.59 3.59 0 0 1 4.6 2.43s.11.71.19 1.26l4.69-1.41-2.16-7.2-4.69 1.41zM234.72 481.62c.32.81 3.1 7.64 3.42 8.45l3.91-1.59a2824 2824 0 0 0-2.36-5.81l2.71-1.1 6.84 16.86-3.06 1.25 1.08 2.63 12.28-5c-.24-.61-.82-2-1.07-2.64l-3.09 1.33-6.84-16.87 2.71-1.1s2 5 2.36 5.82l3.9-1.59c-.33-.81-3.1-7.64-3.42-8.45l-19.37 7.86zM265.41 468.51l1.32 2.52 2.07-1.03 8.42 16.12-2.06 1.08c.3.58 1 1.95 1.32 2.52l18.14-9.48c-.4-.76-3.41-6.51-3.8-7.27l-4.41 2.3 2.49 4.73-5.52 2.88-8.38-16.14 2.23-1.16-1.32-2.52-10.45 5.45zM296.08 451.86c-4.51 2.39-6.72 5.3-6.72 9a16.3 16.3 0 0 0 2.24 7.46c2.11 4 4.46 6.3 7.21 7.14 2.58.79 5.53.28 9-1.57s5.52-4 6.32-6.57c.84-2.76.23-6-1.86-10s-4.44-6.27-7.19-7.11c-2.58-.79-5.54-.27-9 1.58zm5.5 19.21a16 16 0 0 1-2.3-3.67l-2.58-4.86a15.7 15.7 0 0 1-1.73-3.92 4.06 4.06 0 0 1 2.36-4.48 4 4 0 0 1 5 .57c.69.67 1.59 2.24 3.22 5.31l1.68 3.17c1 2 1.74 3.38 1.76 4.66a4 4 0 0 1-2.37 3.78 4.07 4.07 0 0 1-5-.56zM309.69 445.21l4.09 8.15 3.77-1.89-2.82-5.61 2.61-1.31 8.18 16.26-2.95 1.48 1.28 2.54 11.85-6c-.3-.58-1-1.95-1.28-2.54l-3 1.5-8.18-16.26 2.61-1.31 2.82 5.6 3.77-1.89-4.1-8.15-18.67 9.39zM345.21 428.5l1.08 2.63 2.16-.89 2.72 6.62-6.86 2.81-2.71-6.61 2.15-.89c-.24-.6-.83-2-1.08-2.63l-10.5 4.31c.24.61.83 2 1.08 2.64l2.15-.89 6.92 16.83-2.16.89 1.08 2.63 10.51-4.31-1.08-2.64-2.16.89-3-7.29 6.86-2.82 3 7.3-2.15.88c.24.6.83 2 1.08 2.63l10.5-4.31c-.24-.61-.83-2-1.08-2.63l-2.16.88-6.91-16.83 2.16-.89c-.25-.6-.84-2-1.08-2.63l-10.51 4.32zM360.5 422.83c.18.63.61 2.11.8 2.73l2.23-.65 5.1 17.47-2.24.65c.19.63.62 2.11.8 2.74l10.9-3.19c-.18-.62-.61-2.1-.8-2.73l-2.23.66L370 423l2.24-.65c-.18-.63-.61-2.11-.8-2.73l-10.9 3.17zM382.71 417.17c-.07.75-2.2 21.7-2.2 21.7l-2 .32.49 2.81 8.4-1.4c-.1-.64-.36-2.16-.47-2.81l-2.27.38.24-4.89 6-1 1.92 4.53-2.12.35c.11.64.36 2.16.47 2.81l10.42-1.74c-.1-.64-.36-2.16-.47-2.81l-1.79.3-9-19.83-7.59 1.27zm2.36 13.23.72-11.08 4.33 10.88-5.09.85v-.65zM402.62 417.05h2.33l-.19 18.19h-2.33v2.84l8.59.09v-2.84h-2.33l.14-13.87s9.67 16.35 10 16.82l5.83.07c0-1 .23-21 .23-21h2.33v-2.85l-8.63-.09v2.85h2.33l-.14 13.16-9.42-16.1-8.67-.09v2.84zM215 504.36l-5.05.87c.15.82.91 5.25.91 5.25l-6 1-1.33-7.7 2.48-.43.33 1.74 4.12-.77-1.23-6.61-4.12.77.22 1.21-2.43.42-1.13-6.57 5.39-.92s.64 3.7.77 4.49l5-.87c-.14-.83-1.11-6.47-1.26-7.3l-19.43 3.36.48 2.8 2.41-.42 3.09 17.94-2.4.41.48 2.8 20-3.45c-.14-.85-1.24-7.21-1.38-8.06z"/><g fill="#ffcc02"><path d="M291.06 428.32c-.34-1.38-1.25-2.88-3.1-5.88-1.34-2.18-4.43-7.2-4.67-9l.14-.42c1.15-3.39 1.55-4.89 1.55-11.33 0-5.09-2-16.6-3.25-23l-8.12 2.35c1.27 6.8 3 16.71 3 20.63 0 5.38-.21 6-1.1 8.64l-.29.84a7 7 0 0 0-.33 2.15c0 3.55 2.44 7.82 6 13.52.78 1.26 1.81 2.95 2.09 3.58a26 26 0 0 1 .14 3.44v3.41l7.68-4c.25-.14.51-.26.77-.4a24.6 24.6 0 0 0-.39-4.61zM289.67 410.11l-.29-.85c-.8-2.37-.92-2.73-.92-7.55a61 61 0 0 1 .76-7.36c11.42-9 18.16-21.77 18.16-21.77l8.71 9c7.5-4.81 12-22.23 12-22.23C329.6 361.77 335 366 335 366c6.3-6.61 8.71-30.93 8.71-30.93 4.2 2.1 9.61 1.5 9.61 1.5 3.3-16.82-6.61-38.44-6.61-38.44l10.21.6c-.6-13.52-23.12-33-23.12-33l9.91-.9c-3.91-7.21-22.53-17.12-22.53-17.12v-7.21l9-.9-3.3-14.41 16.82-1.51 2.4 10.22 6.31-5.41c6.9 12.91 9.61 34.84 9.61 34.84l8.71-4.81c5.7 15.92 5.7 37.24 5.7 37.24l10.21-4.2C384.86 338 372 345 372 345l12 .3c-8.75 18.27-25.27 29.7-25.27 29.7l8.71 1.8C354.23 395.7 332 402.61 332 402.61l9.91 5.71c-20.27 11-41.48 7-51.82 3.83a10 10 0 0 0-.42-2zM272 410.11l.28-.85c.8-2.37.93-2.73.93-7.55a62 62 0 0 0-.77-7.36c-11.42-9-18.15-21.77-18.15-21.77l-8.71 9c-7.51-4.81-12-22.23-12-22.23-1.5 2.41-6.9 6.61-6.9 6.61-6.31-6.61-8.71-30.93-8.71-30.93-4.21 2.1-9.61 1.5-9.61 1.5-3.31-16.82 6.6-38.44 6.6-38.44l-10.21.6c.6-13.52 23.13-33 23.13-33l-9.91-.9c3.9-7.21 22.52-17.12 22.52-17.12v-7.21l-9-.9 3.3-14.41-16.81-1.51-2.41 10.22-6.3-5.41c-6.91 12.91-9.61 34.84-9.61 34.84l-8.71-4.81c-5.71 15.92-5.71 37.24-5.71 37.24L175 291.49C176.76 338 189.68 345 189.68 345l-12 .3c8.71 18.32 25.23 29.73 25.23 29.73l-8.71 1.8c13.21 18.92 35.44 25.83 35.44 25.83l-9.91 5.71c20.28 11 41.49 7 51.82 3.83a10 10 0 0 1 .43-2zM368 208.4v25s18.84-1.51 18.84-14.52c0-9.51-18.84-10.51-18.84-10.51z"/><path d="M370.77 241.43s22.53-5.5 26.53-20.52 1-19.52 1-19.52a44.4 44.4 0 0 0 12.52-1c5.5-1.5 18-5 26-3 0 0-17.51 10.51-25.52 21.52l23.52 3.5s-12 4.51-18 7.51-25 17-46.05 11.51M187.07 178.87v-21s-22 5.51-22 16 22 5 22 5"/><path d="M185.57 153.34s-23 3.5-28 11.51-5.57 24.53-5.57 24.53-29.53 1.5-36-7.51c0 0 19 1 23-9.51 0 0-3.5-4-8-5s-14-6-17.52-14c0 0 5 1.5 19.52 1.5s41.05-13 52.56-1.5z"/><path d="M375.78 166.35c-7.92-1.22-21.77-2.24-43.31-1.34l5.53-16.18a61.3 61.3 0 0 0-8.93-5.87L323 165.5l-2.28.15 6.4-23.74a94 94 0 0 0-7.19-3.38l-5.87 27.61-2.25.18 6.08-28.61c-2.28-.89-4.73-1.76-7.37-2.55l-5 31.71-2.22.21 5.12-32.53c-2.19-.61-4.49-1.17-6.89-1.66l-4 34.78-2.2.23 4.07-35.42q-3.68-.67-7.67-1.09l-2.41 37.19-2.19.26 2.45-37.65c-2.84-.24-5.79-.38-8.85-.38s-5.87.14-8.66.36l2.56 39.28-2.15.3-2.48-39.38c-2.66.27-5.22.63-7.66 1.07l4.49 39.14-2.14.32-4.48-39.05q-3.62.74-6.9 1.65l6 38.23-2.14.35-6-38c-2.64.79-5.1 1.65-7.38 2.54l7.75 36.38-2.13.37-7.64-35.92a96 96 0 0 0-7.2 3.36l9.05 33.56-2.14.38-8.87-32.89a61.7 61.7 0 0 0-9.1 6l9.79 28.41c-26.93 5-48 9.63-59.74 9.63-11 0-14.52-8.51-14.52-8.51v37s.5 8 21 8c13 0 41.23-5.4 65.67-10.07l15 43.61h2.61l-12-44.68 2.13-.4L265.6 257h1.4l-9.75-45.8 2.13-.4 9.83 46.2h1.18L263 210.08l2.13-.39 7.43 47.31h1.88l-5.51-48 2.13-.37 5.56 48.37h1.52L275 208l2.15-.34L280.3 257h1.16l3.27-50.32 2.18-.29-3.29 50.61h1.52l5.86-51.19 2.21-.28-5.89 51.47h1.88l8.18-52 2.23-.26-8.22 52.26h1.18l11.2-52.65 2.26-.24L294.78 257h1.38l14.37-53.32 2.29-.2L298.4 257h2.4l18.61-54c13.1-.92 29.62-1.53 52.87-1.53 12.51 0 18.52 13 18.52 13v-37.61s-3.64-8.76-15-10.51z"/></g><path d="M171.46 197.77h1.76l-.37 15.82h-1.76c0 .6 0 1.71-.05 2.31l15.17.35c0-.83.14-6.1.16-6.93l-3.49-.08c0 .8-.11 4.62-.11 4.62l-4.94-.11.37-15.83 1.89.05v-2.31l-8.62-.21c0 .6 0 1.72-.06 2.32zM187.27 195.16c.08.6.23 1.7.3 2.3l1.75-.23 2.05 15.69-1.75.23.31 2.29 8.23-1.07c-.08-.6-.22-1.7-.3-2.3l-1.74.23-2.06-15.69 1.75-.23c-.08-.59-.23-1.7-.3-2.29zM206.82 192.26l.38 2.28 1.88-.31-.73 16-5.79-14.95 1.58-.26c-.1-.59-.28-1.69-.38-2.28l-7.6 1.26c.1.59.28 1.69.37 2.28l1.34-.22s7 16.83 7.26 17.55l5.36-.89c.06-.77 1.33-19 1.33-19l1.47-.24-.38-2.28-6.09 1zM213.66 191.08c.11.59.3 1.68.41 2.27l1.73-.31 2.83 15.57-1.73.32c.11.59.31 1.68.41 2.27l8.17-1.48c-.1-.59-.3-1.69-.41-2.28l-1.73.32-2.83-15.58 1.73-.31c-.1-.59-.3-1.68-.41-2.27zM235.38 187c.11.59.31 1.68.43 2.27l1.72-.33 2.22 11.69-10-12.57-6.21 1.18c.12.59.32 1.68.44 2.27l1.72-.33 3 15.55-1.73.33.43 2.27 6.11-1.16-.43-2.27-1.72.33L229 194l10.48 13.1 4.1-.78-3.38-17.83 1.73-.32c-.12-.59-.32-1.69-.44-2.28zM256 183.11c.08.41.41 2.16.41 2.16l-1-.76a5.86 5.86 0 0 0-5-.86 6.58 6.58 0 0 0-4.5 2.54c-1.29 1.9-1.5 4.89-.65 9.43 1.41 7.44 3.93 10.11 8.73 9.2 2.57-.48 4.12-1.59 4.73-3.4l.8-2.38s.27 3.53.32 4.16l3.72-.7c-.16-.88-1.46-7.79-1.46-7.79l1.51-.28c-.12-.62-.36-1.92-.48-2.54l-7 1.31c.12.62.36 1.92.48 2.54l1.67-.31.42 1.63c.46 2.44-.74 4.36-3 4.78a3.48 3.48 0 0 1-2.71-.44c-1.65-1.12-2.31-4-3.06-8-.59-3.17-.77-5.41.17-6.8a3.26 3.26 0 0 1 2.23-1.32 3.67 3.67 0 0 1 2.83.56 4.87 4.87 0 0 1 1.92 3.22s.08.52.11.74l3.81-.72c-.15-.81-1.1-5.82-1.25-6.64l-3.78.71zM273.23 180.14l.48 3-1.18-1.37a3.87 3.87 0 0 0-4-1.39 4.7 4.7 0 0 0-3.16 1.86 6.62 6.62 0 0 0-.88 5c.52 3.29 2 4.27 4.85 5.11l2.26.6c2.38.59 3.95 1 4.25 2.87a2.49 2.49 0 0 1-2.13 3.05 3.45 3.45 0 0 1-2.6-.56 4.16 4.16 0 0 1-1.56-2.82l-.05-.48v-.27l-3.39.54 1 6.49 3.37-.53-.4-2.5 1 .83a5.92 5.92 0 0 0 4.91 1.26 5.1 5.1 0 0 0 3.5-2 6.63 6.63 0 0 0 .86-5c-.55-3.41-2.33-4.44-5.88-5.34l-1.65-.38c-2.15-.46-3.7-.8-4-2.74a2.37 2.37 0 0 1 2-2.81 2.74 2.74 0 0 1 2.09.5 3.3 3.3 0 0 1 1.3 2.21s0 .56 0 1l3.38-.55c-.13-.81-.87-5.45-1-6.25l-3.39.54zM280.32 179.18c.11.84.87 6.81 1 7.65l2.9-.37c-.11-.83-.68-5.36-.68-5.36l2.43-.31 2 15.7-2.46.31c.07.6.21 1.7.29 2.3l9.66-1.23c-.08-.6-.22-1.7-.3-2.3l-2.49.32-2-15.7 2.43-.31s.58 4.53.68 5.36l2.91-.37c-.11-.84-.87-6.81-1-7.66l-15.37 2zM305.56 175.49c-2.71.26-4.64 1.12-5.91 2.65-1.55 1.87-2.12 4.75-1.74 8.81.68 7.38 3.66 10.42 9.66 9.86s8.33-4.09 7.65-11.48c-.38-4.05-1.47-6.77-3.34-8.32-1.53-1.27-3.6-1.77-6.32-1.52m-1.68 17a15.6 15.6 0 0 1-.58-3.68l-.44-4.73a15.2 15.2 0 0 1-.11-3.7 3.37 3.37 0 0 1 6.49-.61 25.3 25.3 0 0 1 .76 5.3l.29 3.08a11 11 0 0 1-.08 4.29 3.06 3.06 0 0 1-2.84 2.26 3.21 3.21 0 0 1-3.49-2.21M327.16 174.62c0 .6.09 1.71.12 2.31l1.75-.1.63 11.88-8.18-13.8-6.31.33c0 .6.09 1.71.12 2.31l1.76-.09.83 15.81-1.76.09c0 .6.09 1.71.12 2.31l6.22-.33c0-.6-.09-1.71-.13-2.31l-1.75.1-.65-12.5 8.61 14.37 4.17-.22-.95-18.11 1.76-.09c0-.6-.09-1.71-.12-2.31l-6.24.33zM358.43 190.12c-1.69 0-2.61.83-2.6 2.29a2.12 2.12 0 0 0 .6 1.55 2.82 2.82 0 0 0 2.05.67c1.67 0 2.62-.86 2.6-2.29a2.1 2.1 0 0 0-.59-1.57 2.85 2.85 0 0 0-2.06-.65M368.73 173.11a5.1 5.1 0 0 0-5 2.91c-.74 1.45-.89 3.92-.89 7.43 0 4.3.37 6.62 1.24 8 1.29 2.07 3.5 3.08 6.76 3.08 2.57 0 4.43-.62 5.69-1.88s2-3.45 2-6.39c0 0 0-.89-.06-1.44h-2.63c0 .72.07 2.42.07 2.42a5.5 5.5 0 0 1-1.24 4 4 4 0 0 1-2.89 1 3.47 3.47 0 0 1-2.58-.89c-1.22-1.22-1.31-3.64-1.32-7.46v-1.83c0-2.8.19-4.74 1.2-5.75a3 3 0 0 1 3.95 0 5.18 5.18 0 0 1 1.11 3.77s0 .49 0 .9h3.73v-7.47h-3.63v3l-.92-1.31a5.19 5.19 0 0 0-4.56-2.15zM378.65 192.93a2.1 2.1 0 0 0 0 1.67 2.85 2.85 0 0 0 1.69 1.34c1.57.56 2.75.12 3.24-1.23a2.16 2.16 0 0 0 0-1.68 2.8 2.8 0 0 0-1.7-1.33c-1.6-.57-2.74-.13-3.23 1.23M348.16 182l-2.43.05-.1-6 4-.07s.06 3.22.07 4l3.49-.06c0-.82-.09-5.49-.11-6.3l-14.16.24v2.32h1.92l.27 15.83h-1.91v2.31l8.6-.15v-2.31h-1.9l-.11-6.81h2.37v1.74h3.23v-5.93h-3.23zM377.35 309.21l-3-3-6 8.1s1.5-20.12-3.3-33.93l2.7-10.81-4.5.9-.9 5.7s-3.61-14.41-10.52-21.32l1.81-12.92h-4.51l-1.2 6.61s-6-13.21-12.31-16.52l-2.71 4.51a38.14 38.14 0 0 1 11.42 14.71l-10.21-3.9v3.6l13.21 5.41s8.71 9.31 10.81 18.92l-6.61-.3v4.21l8.41.9s4.21 21.92 3.61 34.83l-6.61-5.4-2.1 3.9 9 9s-3 21.93-12.32 33.64l-2.1-9.61-4.5 1.2.9 18a117.4 117.4 0 0 1-15 15.92l-1.5-10.21-3.3 2.4-.9 13.51s-8.11 8.41-18 12.62l1.8-13.82-4.51 1.2-4.2 15.32-11.71-.8a25 25 0 0 0 .32 5.49l12.59-.79 19.48 4.52-.3-3.3-12-2.71s15-6 23.72-15.61l15-.31-.6-4.5-10.21.3s12-11.71 16.22-19.22l12-2.1-.9-4.81-8.41 1.5s11.71-19.22 13.21-38.74l8.71-12.31zM240.73 411l19.52-4.51 12.59.79a25 25 0 0 0 .33-5.49l-11.72.8-4.2-15.32-4.51-1.2 1.81 13.82c-9.91-4.21-18-12.62-18-12.62l-.9-13.51-3.31-2.4-1.5 10.21a117.4 117.4 0 0 1-15-15.92l.9-18-4.5-1.2-2.1 9.61c-9.31-11.71-12.32-33.64-12.32-33.64l9-9-2.1-3.9-6.61 5.4c-.6-12.91 3.61-34.83 3.61-34.83l8.41-.9V275l-6.61.3c2.1-9.61 10.81-18.92 10.81-18.92l13.22-5.41v-3.6l-10.21 3.9a38.06 38.06 0 0 1 11.41-14.71L226 232c-6.3 3.31-12.31 16.52-12.31 16.52l-1.2-6.61H208l1.81 12.92c-6.91 6.91-10.51 21.32-10.51 21.32l-.91-5.7-4.5-.9 2.7 10.81c-4.8 13.81-3.3 33.93-3.3 33.93l-6-8.1-3 3 8.71 12.33c1.5 19.52 13.21 38.74 13.21 38.74l-8.41-1.5-.9 4.81 12 2.1c4.2 7.51 16.21 19.22 16.21 19.22l-10.21-.3-.6 4.5 15 .31C238 399 253 405 253 405l-12 2.71-.3 3.3z"/><path fill="#ffcc02" d="M309.81 343.45a4.54 4.54 0 0 0 3.3-3.31c1.8 1.5.6 6.91.6 6.91a13.6 13.6 0 0 0 2.4-1.8c1.21 4.8-3.3 7.51-3.3 7.51 1.5 1.2 4.2 0 4.2 0-.3 3-5.1 4.8-5.1 4.8a5.9 5.9 0 0 0 2.7 1.2 6.34 6.34 0 0 1-6.3 2.4c-2.11 3.31 3.6 5.41 3.6 5.41-3.6 3.3-7.51 0-7.51 0-3 3 0 7.21 0 7.21-5.41-.3-6.61-3.91-6.61-3.91-3.9-1.5-7.2 3.91-7.2 3.91-2.71-3.31 1.5-9.61 1.5-9.61-2.41-1.5-3.91-.6-3.91-.6 0-4.21 6.31-5.71 6.31-5.71s2.1 2.7 4.5 2.1 3.61-3.6 2.41-6.3-3.91-2.11-6-.3-5.4.6-5.4.6c-1.81 9-7.51 9.91-7.51 9.91.9-2.71 0-4.21 0-4.21a7.1 7.1 0 0 0-3.91 4.21c-2.4-5.41 3.31-9.31 3.31-9.31v-10.81c0-5.41 3.6-10.52 3.6-14.42s-4.2-7.51-4.2-7.51c7.2-2.7 8.1-11.11 8.1-11.11a68.5 68.5 0 0 1 6.61 10.81c2.7 5.71 8.11 12.62 13.82 12.62s4.8-2.71 4.8-4.21a6.84 6.84 0 0 0-4.5-4.8c-3.91-1.21-9.31-3.91-9-10.52 0 0 2.7 5.41 8.1 6a7.4 7.4 0 0 0-1.5-3.9c-1.5-2.11-4.5-6-4.5-9.91s3-20.43-2.1-24c0 0 2.1-1.5 5.1 2.1 0 0 1.8-6.61.9-8.71s6.31-6.31 11.72-4.5c0 0-6.31 2.4-6.31 5.7s3 5.41.6 12.92c0 0 4.21-.6 3.9-6.31 0 0 2.71 3.9.9 8.11s-11.43 8.09-10.53 13.19 3.61 6.91 3.61 6.91 4.2-3.9 1.2-8.71c0 0 7.21 3 1.8 12.62 0 0 2.1 7.2 4.2 9 0 0 3 .3 3.31-4.21 0 0 3.85 12.77-7.51 17.42-6.61 2.7-12.91-1.5-12.91-1.5l-.6 4.2s1.8.6 2.7 0 1.5-1.8 3.3-.9 0 3.91 3.31 3.31z"/><path fill="#ffcc02" d="M272.57 354.56c4.8.3 4.8-3.31 4.8-3.31-3.3 1.2-3.6-2.7-3.6-2.7a4.79 4.79 0 0 0 4.8-5.1s-4.5 2.4-4.5-1.81c0-2.34 3.65-4.31 6.87-5.6l.56-1.54a18 18 0 0 0 1.43-5.17 6.46 6.46 0 0 0-1.49-3.52 7.84 7.84 0 0 1-3.77 1.12c-4.5 0-3.6-2.7-9.91-2.7-4.5 0-8.71 9.6-8.71 9.6s-6.91-3-5.71 4.51a2.84 2.84 0 0 1 2.71-.9s.9 3 5.1 2.1c0 0 5.71 9.61-8.11 11.11l-.3-.9s1.51-3.3-3.9-3.9c0 0-.3-2.71-4.5-2.4a8.24 8.24 0 0 1 2.1 4.5s-3.91 2.4-.9 3.9c0 0-5.41 1.21-6.31 5.41 0 0 2.1-2.4 3.9-1.8s-1.2 2.7 3.31 2.1c0 0-3 5.41.3 8.11 0 0 1.2-3.3 2.4-3.9 0 0 2.1.9 4.2-2.11a2.76 2.76 0 0 0 3 2.71s.3 3 4.2 2.4a2.69 2.69 0 0 1-.6-3.61s2.1.3 1.5-4.2c-.31-2.38 2.41 3.3 3.31 4.2s3.6.3 3.6.3c-2.4-.6-1.2-3.3-1.2-3.3 5.71 3.91 6.91-.9 6.91-.9-4.51 0-1.5-2.7-1.5-2.7zM248.54 292.39a4.2 4.2 0 0 1-1.8 4.2l.15.09 3.83-1c2.44-.61 6.41-1.92 7.61-2.91 1.36-1.11 2.62-2.09 3.79-2.91l-13.58-10.72.6-6.31s6.31 1.5 5.41-7.21c0 0-2.11 3-5.11 2.1 0 0-1.5-2.1-6-3.9l-.6 4.8s-4.5-3.6-8.41 1.81l2.71.6s-1.5 2.4 2.4 3.6c0 0-1.8 5.71-4.81 6.91 0 0 2.11 2.1 3.31.6.89-1.12 4.48-2.48 3.22.1-.65 1.34-3.35.74-3.17 2.85 2.5 1.32 7.86.53 7.71 4.51-1.25.07-2.56 0-3.81.09-.42 2.91 4.74 3.76 6.56 2.66z"/><path d="M280.39 270s1.27-3.37 7.38-2a6 6 0 0 1-7.38 2"/><path fill="#ffcc02" d="M260.85 313.56a3 3 0 0 1-3 1.2c-1.2-1.05-.45-3.6.75-5.7a3.25 3.25 0 0 0 0-3.19 10.4 10.4 0 0 0-2.53.63c-1.8.91-9.61 5.71-13.82 4.21 0 0 2.71-3.9-6.91-5.41a20.5 20.5 0 0 1 1.51 3 9.5 9.5 0 0 0-1.81 2.4s-7.5 1.2-7.2 5.41a4.94 4.94 0 0 1 5.7.6s-4.5 5.7 1.8 9.31a3.75 3.75 0 0 1 .61-3.31s3.6.6 2.7-2.7a7.93 7.93 0 0 0 8.71 4.8s-2.4-3.3.6-5.4c0 0 5.4 5.4 9.31 3.3 0 0-2.7-2.7-1.5-5.1 0 0 3.2 3.8 7.81 3 0 0-3.76-8.77 3.39-4.32l.21-3.64a5.2 5.2 0 0 0-6.31.9z"/></g></svg>